<svg width="18" height="18" viewBox="0 0 18 18" fill="none" xmlns="http://www.w3.org/2000/svg">
<g clip-path="url(#clip0_7770_14019)">
<path d="M7.53253 10.3055L7.59368 10.1482V9.97944V9.97638V9.97341V9.97044V9.96747V9.9645V9.96153V9.95865V9.95568V9.95271V9.94974V9.94677V9.9438V9.94092V9.93795V9.93498V9.9321V9.92913V9.92616V9.92328V9.92031V9.91743V9.91446V9.91158V9.90861V9.90573V9.90285V9.89988V9.897V9.89412V9.89124V9.88836V9.88539V9.88251V9.87963V9.87675V9.87387V9.87099V9.86811V9.86523V9.86235V9.85956V9.85668V9.8538V9.85092V9.84813V9.84525V9.84237V9.83958V9.8367V9.83391V9.83103V9.82824V9.82536V9.82257V9.81969V9.8169V9.81411V9.81132V9.80844V9.80565V9.80286V9.80007V9.79728V9.79449V9.7917V9.78891V9.78612V9.78333V9.78054V9.77775V9.77505V9.77226V9.76947V9.76677V9.76398V9.76119V9.75849V9.7557V9.753V9.75021V9.74751V9.74481V9.74202V9.73932V9.73662V9.73392V9.73122V9.72843V9.72573V9.72303V9.72033V9.71763V9.71493V9.71232V9.70962V9.70692V9.70422V9.70152V9.69891V9.69621V9.6936V9.6909V9.68829V9.68559V9.68298V9.68028V9.67767V9.67506V9.67236V9.66975V9.66714V9.66453V9.66192V9.65931V9.6567V9.65409V9.65148C8.96858 8.95633 9.90013 7.50906 9.90013 5.85406C9.90013 3.54007 8.07071 1.61987 5.76012 1.61987C3.44952 1.61987 1.62012 3.54007 1.62012 5.85406C1.62012 7.5064 2.54866 8.95152 3.91994 9.64797L3.91803 9.8133L3.89916 11.4135C3.88549 12.5774 3.87164 13.787 3.87164 13.9917V14.4658L4.2625 14.7339C4.43902 14.855 4.89581 15.1693 5.13318 15.3647L5.77304 15.8915L6.35064 15.2971C6.47268 15.1715 6.63652 15.0157 6.81928 14.8421L6.82823 14.8336C7.00006 14.6703 7.18919 14.4907 7.33912 14.3364L7.75261 13.9109L7.5245 13.3632C7.47062 13.2338 7.4256 13.1287 7.38648 13.0374C7.34782 12.9472 7.31493 12.8704 7.28494 12.7969C7.3738 12.6089 7.45333 12.4306 7.53253 12.2268L7.65927 11.9008L7.53253 11.5747C7.51316 11.5249 7.48946 11.4626 7.46286 11.3926C7.41171 11.258 7.34989 11.0954 7.28781 10.9401C7.34989 10.7848 7.41171 10.6221 7.46286 10.4876C7.48946 10.4177 7.51317 10.3553 7.53253 10.3055Z" stroke="#AE9BCF" stroke-width="1.8"/>
<path d="M13.8601 9L11.0756 12.24L9.81006 10.7672" stroke="#AE9BCF" stroke-width="1.8" stroke-miterlimit="10" stroke-linecap="round" stroke-linejoin="round"/>
<path d="M6.56982 14.6701H15.3898C15.8869 14.6701 16.2898 14.2672 16.2898 13.7701V4.23008C16.2898 3.73303 15.8869 3.33008 15.3898 3.33008H8.99982" stroke="#AE9BCF" stroke-width="1.8"/>
<path d="M5.75984 6.93009C6.40602 6.93009 6.92984 6.40626 6.92984 5.76009C6.92984 5.11391 6.40602 4.59009 5.75984 4.59009C5.11367 4.59009 4.58984 5.11391 4.58984 5.76009C4.58984 6.40626 5.11367 6.93009 5.75984 6.93009Z" stroke="#AE9BCF" stroke-width="0.9"/>
</g>
<defs>
<clipPath id="clip0_7770_14019">
<rect width="18" height="18" fill="white"/>
</clipPath>
</defs>
</svg>
