<svg width="20" height="20" viewBox="0 0 20 20" fill="none" xmlns="http://www.w3.org/2000/svg">
<path d="M7.16701 10.4631H4.5835C3.15667 10.4631 2 11.64 2 13.0917C2 14.5435 3.15667 15.7204 4.5835 15.7204H6.13361M11.7565 14.3344L12.8603 15.4621L15.0723 13.2067M11.3006 4.15436C11.3006 5.89647 9.91261 7.30873 8.20042 7.30873C6.48822 7.30873 5.10021 5.89647 5.10021 4.15436C5.10021 2.41226 6.48822 1 8.20042 1C9.02264 1 9.81119 1.33233 10.3926 1.92389C10.974 2.51545 11.3006 3.31777 11.3006 4.15436ZM12.8419 9.88416C13.158 9.60923 13.6755 9.60923 13.9961 9.88416L14.7197 10.5179C14.8571 10.6391 15.1136 10.7369 15.2967 10.7369H16.0753C16.5608 10.7369 16.9592 11.1423 16.9592 11.6363V12.4284C16.9592 12.6102 17.0554 12.8758 17.1745 13.0156L17.7973 13.7518C18.0676 14.0734 18.0676 14.5999 17.7973 14.9261L17.1745 15.6624C17.0554 15.8022 16.9592 16.0631 16.9592 16.2495V17.0417C16.9592 17.5356 16.5608 17.941 16.0753 17.941H15.2967C15.1181 17.941 14.8571 18.0389 14.7197 18.1601L13.9961 18.7938C13.6801 19.0687 13.1625 19.0687 12.8419 18.7938L12.1183 18.1601C11.9809 18.0389 11.7245 17.941 11.5413 17.941H10.749C10.2635 17.941 9.86504 17.5356 9.86504 17.0417V16.2449C9.86504 16.0631 9.76887 15.8022 9.65437 15.6624L9.03609 14.9215C8.77046 14.5999 8.77046 14.078 9.03609 13.7565L9.65437 13.0156C9.76887 12.8758 9.86504 12.6148 9.86504 12.4331V11.6316C9.86504 11.1377 10.2635 10.7323 10.749 10.7323H11.5413C11.7199 10.7323 11.9809 10.6344 12.1183 10.5132L12.8419 9.88416Z" stroke="#333333" stroke-width="1.5" stroke-linecap="round" stroke-linejoin="round"/>
</svg>
