<svg width="20" height="20" viewBox="0 0 20 20" fill="none" xmlns="http://www.w3.org/2000/svg">
<path fill-rule="evenodd" clip-rule="evenodd" d="M16.2998 3.69953C15.8117 3.21137 15.0202 3.21137 14.5321 3.69953L13.8713 4.36027L15.6391 6.12804L16.2998 5.4673C16.788 4.97914 16.788 4.18769 16.2998 3.69953ZM17.4784 6.64581C18.6174 5.50678 18.6174 3.66005 17.4784 2.52102C16.3393 1.38199 14.4926 1.38199 13.3536 2.52102L12.1037 3.77086L1.9101 13.9645C1.75382 14.1208 1.66602 14.3328 1.66602 14.5538V17.5297C1.66602 17.9899 2.03912 18.363 2.49936 18.363H5.41602C5.63704 18.363 5.849 18.2752 6.00528 18.1189L17.4784 6.64581ZM14.4606 7.30655L12.6928 5.53878L3.33269 14.8989V16.6963H5.07085L14.4606 7.30655Z" fill="#333333"/>
</svg>
