<svg width="20" height="20" viewBox="0 0 20 20" fill="none" xmlns="http://www.w3.org/2000/svg">
<g clip-path="url(#clip0_7900_503)">
<path d="M13.75 8.33236C13.75 8.74657 14.0858 9.08236 14.5 9.08236C14.9142 9.08236 15.25 8.74657 15.25 8.33236H14.5H13.75ZM13.6333 19.749C14.0475 19.749 14.3833 19.4132 14.3833 18.999C14.3833 18.5848 14.0475 18.249 13.6333 18.249V18.999V19.749ZM10.8512 2.24902H10.1012V3.74902H10.8512V2.99902V2.24902ZM1.5 15.999H2.25V5.99902H1.5H0.75V15.999H1.5ZM14.5 5.99902H13.75V8.33236H14.5H15.25V5.99902H14.5ZM13.6333 18.999V18.249H4.5V18.999V19.749H13.6333V18.999ZM4.5 2.99902V3.74902H5.4V2.99902V2.24902H4.5V2.99902ZM10.8512 2.99902V3.74902H11.5V2.99902V2.24902H10.8512V2.99902ZM1.5 15.999H0.75C0.75 18.0701 2.42893 19.749 4.5 19.749V18.999V18.249C3.25736 18.249 2.25 17.2417 2.25 15.999H1.5ZM14.5 5.99902H15.25C15.25 3.92796 13.5711 2.24902 11.5 2.24902V2.99902V3.74902C12.7426 3.74902 13.75 4.75638 13.75 5.99902H14.5ZM1.5 5.99902H2.25C2.25 4.75638 3.25736 3.74902 4.5 3.74902V2.99902V2.24902C2.42893 2.24902 0.75 3.92796 0.75 5.99902H1.5Z" fill="#333333"/>
<path d="M14.1953 18.8887C14.3789 19.0358 14.6211 19.0358 14.8047 18.8887C15.7389 18.14 18.5 15.6911 18.5 12.8985V9.88555C18.5 9.72315 18.387 9.58717 18.2387 9.57101C17.0972 9.44667 16.0017 9.01715 15.0493 8.3206L14.7006 8.06559C14.5793 7.97683 14.4207 7.97683 14.2994 8.06559L13.9507 8.3206C12.9983 9.01715 11.9028 9.44667 10.7613 9.57101C10.613 9.58717 10.5 9.72315 10.5 9.88555V12.8985C10.5 15.6911 13.2611 18.14 14.1953 18.8887Z" stroke="#333333" stroke-width="1.5" stroke-linecap="round" stroke-linejoin="round"/>
<path d="M5.64296 4.46656V2.73351C5.64296 2.5803 5.70317 2.43337 5.81033 2.32503C5.91749 2.2167 6.06283 2.15583 6.21438 2.15583H7.10008C7.16566 1.82936 7.34086 1.53584 7.596 1.32502C7.85114 1.11419 8.17054 0.999023 8.50006 0.999023C8.82959 0.999023 9.14898 1.11419 9.40412 1.32502C9.65926 1.53584 9.83447 1.82936 9.90004 2.15583H10.7857C10.9373 2.15583 11.0826 2.2167 11.1898 2.32503C11.297 2.43337 11.3572 2.5803 11.3572 2.73351V4.46656M5.64296 4.46656H11.3572M5.64296 4.46656H4.50012M11.3572 4.46656H12.5M4.5 7.93274H9.83337M4.5 10.9659H8.49994M4.5 13.999H7.16663" stroke="#333333" stroke-width="1.5" stroke-miterlimit="10" stroke-linecap="round" stroke-linejoin="round"/>
<path d="M16.5 11.999L14.6538 13.999L13.5 12.8879" stroke="#333333" stroke-width="1.5" stroke-miterlimit="10" stroke-linecap="round" stroke-linejoin="round"/>
</g>
<defs>
<clipPath id="clip0_7900_503">
<rect width="20" height="20" fill="white"/>
</clipPath>
</defs>
</svg>
