<svg width="16" height="16" viewBox="0 0 16 16" fill="none" xmlns="http://www.w3.org/2000/svg">
<path d="M8.0013 6.00016V1.3335L6.66797 2.66683" stroke="#333333" stroke-width="1.5" stroke-linecap="round" stroke-linejoin="round"/>
<path d="M8 1.3335L9.33333 2.66683" stroke="#333333" stroke-width="1.5" stroke-linecap="round" stroke-linejoin="round"/>
<path d="M1.32031 8.6665H4.26031C4.51365 8.6665 4.74031 8.8065 4.85365 9.03317L5.63365 10.5932C5.86031 11.0465 6.32031 11.3332 6.82698 11.3332H9.18031C9.68698 11.3332 10.147 11.0465 10.3736 10.5932L11.1536 9.03317C11.267 8.8065 11.5003 8.6665 11.747 8.6665H14.6536" stroke="#333333" stroke-width="1.5" stroke-linecap="round" stroke-linejoin="round"/>
<path d="M4.66536 3.41992C2.30536 3.76659 1.33203 5.15326 1.33203 7.99992V9.99992C1.33203 13.3333 2.66536 14.6666 5.9987 14.6666H9.9987C13.332 14.6666 14.6654 13.3333 14.6654 9.99992V7.99992C14.6654 5.15326 13.692 3.76659 11.332 3.41992" stroke="#333333" stroke-width="1.5" stroke-linecap="round" stroke-linejoin="round"/>
</svg>
