<svg width="17" height="17" viewBox="0 0 17 17" fill="none" xmlns="http://www.w3.org/2000/svg">
<path d="M15.582 4.604H11.332" stroke="#333333" stroke-width="1.5" stroke-miterlimit="10" stroke-linecap="round" stroke-linejoin="round"/>
<path d="M4.2513 4.604H1.41797" stroke="#333333" stroke-width="1.5" stroke-miterlimit="10" stroke-linecap="round" stroke-linejoin="round"/>
<path d="M7.08464 7.08333C8.45384 7.08333 9.5638 5.97337 9.5638 4.60417C9.5638 3.23496 8.45384 2.125 7.08464 2.125C5.71543 2.125 4.60547 3.23496 4.60547 4.60417C4.60547 5.97337 5.71543 7.08333 7.08464 7.08333Z" stroke="#333333" stroke-width="1.5" stroke-miterlimit="10" stroke-linecap="round" stroke-linejoin="round"/>
<path d="M15.5833 12.396H12.75" stroke="#333333" stroke-width="1.5" stroke-miterlimit="10" stroke-linecap="round" stroke-linejoin="round"/>
<path d="M5.66797 12.396H1.41797" stroke="#333333" stroke-width="1.5" stroke-miterlimit="10" stroke-linecap="round" stroke-linejoin="round"/>
<path d="M9.91667 14.8748C11.2859 14.8748 12.3958 13.7649 12.3958 12.3957C12.3958 11.0265 11.2859 9.9165 9.91667 9.9165C8.54746 9.9165 7.4375 11.0265 7.4375 12.3957C7.4375 13.7649 8.54746 14.8748 9.91667 14.8748Z" stroke="#333333" stroke-width="1.5" stroke-miterlimit="10" stroke-linecap="round" stroke-linejoin="round"/>
</svg>
