<svg width="17" height="17" viewBox="0 0 17 17" fill="none" xmlns="http://www.w3.org/2000/svg">
<path d="M9.68168 14.9276H7.25501C7.10297 14.9276 6.95548 14.8756 6.83702 14.7803C6.71855 14.685 6.63622 14.5521 6.60368 14.4036L6.33235 13.1476C5.97039 12.989 5.62717 12.7906 5.30901 12.5562L4.08435 12.9462C3.93939 12.9925 3.78298 12.9877 3.64109 12.9328C3.49921 12.8778 3.38038 12.776 3.30435 12.6442L2.08835 10.5436C2.01311 10.4117 1.98487 10.2581 2.00824 10.1081C2.03162 9.95802 2.10522 9.82035 2.21701 9.71757L3.16701 8.85091C3.12381 8.45831 3.12381 8.06216 3.16701 7.66957L2.21701 6.8049C2.10506 6.70209 2.03136 6.56429 2.00798 6.41409C1.9846 6.2639 2.01294 6.11022 2.08835 5.97824L3.30168 3.87624C3.37771 3.74445 3.49654 3.64263 3.63843 3.5877C3.78031 3.53276 3.93672 3.52801 4.08168 3.57424L5.30635 3.96424C5.46901 3.84424 5.63835 3.73224 5.81301 3.6309C5.98168 3.53624 6.15501 3.45024 6.33235 3.37357L6.60435 2.1189C6.63673 1.97037 6.7189 1.83736 6.83724 1.74194C6.95559 1.64651 7.10299 1.5944 7.25501 1.59424H9.68168C9.8337 1.5944 9.98111 1.64651 10.0995 1.74194C10.2178 1.83736 10.3 1.97037 10.3323 2.1189L10.607 3.37424C10.9688 3.53284 11.3118 3.73117 11.6297 3.96557L12.855 3.57557C12.9999 3.52952 13.1561 3.53435 13.2979 3.58928C13.4396 3.64421 13.5583 3.74592 13.6343 3.87757L14.8477 5.97957C15.0023 6.25091 14.949 6.59424 14.719 6.80557L13.769 7.67224C13.8122 8.06483 13.8122 8.46098 13.769 8.85357L14.719 9.72024C14.949 9.93224 15.0023 10.2749 14.8477 10.5462L13.6343 12.6482C13.5583 12.78 13.4395 12.8818 13.2976 12.9368C13.1557 12.9917 12.9993 12.9965 12.8543 12.9502L11.6297 12.5602C11.3118 12.7945 10.9688 12.9926 10.607 13.1509L10.3323 14.4036C10.2998 14.552 10.2176 14.6848 10.0993 14.7801C9.98094 14.8754 9.83361 14.9274 9.68168 14.9276ZM5.54835 11.0802L6.09501 11.4802C6.21835 11.5709 6.34635 11.6542 6.47968 11.7302C6.60501 11.8029 6.73301 11.8682 6.86568 11.9276L7.48768 12.2002L7.79235 13.5942H9.14568L9.45035 12.1996L10.0723 11.9269C10.3437 11.8069 10.6017 11.6582 10.841 11.4829L11.3877 11.0829L12.749 11.5162L13.4257 10.3442L12.3703 9.38224L12.445 8.70757C12.4783 8.41224 12.4783 8.11424 12.445 7.81957L12.3703 7.14491L13.4263 6.18091L12.749 5.00824L11.3883 5.44157L10.841 5.04157C10.6016 4.86537 10.3438 4.71539 10.0723 4.59424L9.45035 4.32157L9.14568 2.92757H7.79235L7.48568 4.32224L6.86568 4.59424C6.5938 4.71331 6.336 4.86222 6.09701 5.03824L5.54968 5.43824L4.18968 5.00491L3.51168 6.18091L4.56701 7.14157L4.49235 7.81691C4.45901 8.11224 4.45901 8.41024 4.49235 8.70491L4.56701 9.37957L3.51168 10.3416L4.18835 11.5136L5.54835 11.0802ZM8.46568 10.9276C7.75844 10.9276 7.08016 10.6466 6.58006 10.1465C6.07997 9.64643 5.79901 8.96815 5.79901 8.26091C5.79901 7.55366 6.07997 6.87538 6.58006 6.37529C7.08016 5.87519 7.75844 5.59424 8.46568 5.59424C9.17293 5.59424 9.8512 5.87519 10.3513 6.37529C10.8514 6.87538 11.1323 7.55366 11.1323 8.26091C11.1323 8.96815 10.8514 9.64643 10.3513 10.1465C9.8512 10.6466 9.17293 10.9276 8.46568 10.9276ZM8.46568 6.92757C8.20459 6.92784 7.94931 7.00475 7.73153 7.14878C7.51376 7.29281 7.34306 7.4976 7.24061 7.73776C7.13817 7.97792 7.10849 8.24287 7.15526 8.49974C7.20203 8.75662 7.32319 8.9941 7.50371 9.18274C7.68423 9.37138 7.91615 9.50287 8.17072 9.5609C8.42529 9.61892 8.69129 9.60093 8.93572 9.50915C9.18015 9.41737 9.39226 9.25584 9.54573 9.04461C9.69919 8.83338 9.78727 8.58174 9.79901 8.32091V8.58757V8.26091C9.79901 7.90728 9.65854 7.56814 9.40849 7.3181C9.15844 7.06805 8.8193 6.92757 8.46568 6.92757Z" fill="#333333"/>
</svg>
