<svg width="19" height="17" viewBox="0 0 19 17" fill="none" xmlns="http://www.w3.org/2000/svg">
<path d="M16.5 7.16364V2.83636C16.5 1.88182 16.0482 1.5 14.9259 1.5H12.0741C10.9518 1.5 10.5 1.88182 10.5 2.83636V7.16364C10.5 8.11818 10.9518 8.5 12.0741 8.5H14.9259C16.0482 8.5 16.5 8.11818 16.5 7.16364Z" stroke="#333333" stroke-width="1.5" stroke-linecap="round" stroke-linejoin="round"/>
<path d="M16.5 14.1V12.9C16.5 11.9 16.0482 11.5 14.9259 11.5H12.0741C10.9518 11.5 10.5 11.9 10.5 12.9V14.1C10.5 15.1 10.9518 15.5 12.0741 15.5H14.9259C16.0482 15.5 16.5 15.1 16.5 14.1Z" stroke="#333333" stroke-width="1.5" stroke-linecap="round" stroke-linejoin="round"/>
<path d="M8.5 9.83636V14.1636C8.5 15.1182 8.04824 15.5 6.92588 15.5H4.07412C2.95176 15.5 2.5 15.1182 2.5 14.1636V9.83636C2.5 8.88182 2.95176 8.5 4.07412 8.5H6.92588C8.04824 8.5 8.5 8.88182 8.5 9.83636Z" stroke="#333333" stroke-width="1.5" stroke-linecap="round" stroke-linejoin="round"/>
<path d="M8.5 2.9V4.1C8.5 5.1 8.04824 5.5 6.92588 5.5H4.07412C2.95176 5.5 2.5 5.1 2.5 4.1V2.9C2.5 1.9 2.95176 1.5 4.07412 1.5H6.92588C8.04824 1.5 8.5 1.9 8.5 2.9Z" stroke="#333333" stroke-width="1.5" stroke-linecap="round" stroke-linejoin="round"/>
</svg>
