<svg width="16" height="16" viewBox="0 0 16 16" fill="none" xmlns="http://www.w3.org/2000/svg">
<g clip-path="url(#clip0_7900_600)">
<path d="M11.5 8.98V11.08C11.5 13.88 10.38 15 7.58 15H4.92C2.12 15 1 13.88 1 11.08V8.42C1 5.62 2.12 4.5 4.92 4.5H7.02M11.5 8.98H9.26C7.58 8.98 7.02 8.42 7.02 6.74V4.5M11.5 8.98L7.02 4.5M3.1 11.5H6.6M3.1 9.4H5.431M7.72 1H10.52M4.5 3.1C4.5 1.938 5.438 1 6.6 1H8.434M15 5.2V9.533C15 10.618 14.118 11.5 13.033 11.5M15 5.2H12.9C11.325 5.2 10.8 4.675 10.8 3.1V1L15 5.2Z" stroke="#333333" stroke-width="1.5" stroke-linecap="round" stroke-linejoin="round"/>
</g>
<defs>
<clipPath id="clip0_7900_600">
<rect width="16" height="16" fill="white"/>
</clipPath>
</defs>
</svg>
