<svg width="16" height="16" viewBox="0 0 16 16" fill="none" xmlns="http://www.w3.org/2000/svg">
<path d="M13.8571 4.96703H11.3846V2.98901C11.3844 2.72679 11.2801 2.47538 11.0947 2.28996C10.9092 2.10455 10.6578 2.00026 10.3956 2H5.45055C5.18833 2.00026 4.93692 2.10455 4.7515 2.28996C4.56608 2.47538 4.4618 2.72679 4.46154 2.98901V4.96703H1.98901C1.72679 4.96729 1.47538 5.07158 1.28996 5.257C1.10454 5.44242 1.00026 5.69382 1 5.95604V13.8681C1.00026 14.1304 1.10454 14.3818 1.28996 14.5672C1.47538 14.7526 1.72679 14.8569 1.98901 14.8571H13.8571C14.1194 14.8569 14.3708 14.7526 14.5562 14.5672C14.7416 14.3818 14.8459 14.1304 14.8462 13.8681V5.95604C14.8459 5.69382 14.7416 5.44242 14.5562 5.257C14.3708 5.07158 14.1194 4.96729 13.8571 4.96703ZM1.98901 13.8681V5.95604H4.46154V6.94505H3.47253V7.93407H4.46154V8.92308H3.47253V9.91209H4.46154V10.9011H3.47253V11.8901H4.46154V13.8681H1.98901ZM10.3956 13.8681H5.45055V2.98901H10.3956V13.8681ZM13.8571 13.8681H11.3846V11.8901H12.3736V10.9011H11.3846V9.91209H12.3736V8.92308H11.3846V7.93407H12.3736V6.94505H11.3846V5.95604H13.8571V13.8681Z" fill="#333333"/>
<mask id="mask0_7900_378" style="mask-type:luminance" maskUnits="userSpaceOnUse" x="1" y="2" width="14" height="13">
<path d="M13.8571 4.96703H11.3846V2.98901C11.3844 2.72679 11.2801 2.47538 11.0947 2.28996C10.9092 2.10455 10.6578 2.00026 10.3956 2H5.45055C5.18833 2.00026 4.93692 2.10455 4.7515 2.28996C4.56608 2.47538 4.4618 2.72679 4.46154 2.98901V4.96703H1.98901C1.72679 4.96729 1.47538 5.07158 1.28996 5.257C1.10454 5.44242 1.00026 5.69382 1 5.95604V13.8681C1.00026 14.1304 1.10454 14.3818 1.28996 14.5672C1.47538 14.7526 1.72679 14.8569 1.98901 14.8571H13.8571C14.1194 14.8569 14.3708 14.7526 14.5562 14.5672C14.7416 14.3818 14.8459 14.1304 14.8462 13.8681V5.95604C14.8459 5.69382 14.7416 5.44242 14.5562 5.257C14.3708 5.07158 14.1194 4.96729 13.8571 4.96703ZM1.98901 13.8681V5.95604H4.46154V6.94505H3.47253V7.93407H4.46154V8.92308H3.47253V9.91209H4.46154V10.9011H3.47253V11.8901H4.46154V13.8681H1.98901ZM10.3956 13.8681H5.45055V2.98901H10.3956V13.8681ZM13.8571 13.8681H11.3846V11.8901H12.3736V10.9011H11.3846V9.91209H12.3736V8.92308H11.3846V7.93407H12.3736V6.94505H11.3846V5.95604H13.8571V13.8681Z" fill="white"/>
</mask>
<g mask="url(#mask0_7900_378)">
<path d="M11.3846 4.96703H9.38461V6.96703H11.3846V4.96703ZM11.3846 2.98901H13.3846V2.98701L11.3846 2.98901ZM10.3956 2L10.3976 9.97008e-07H10.3956V2ZM5.45055 2V0L5.44855 1.99401e-06L5.45055 2ZM4.46154 2.98901L2.46154 2.98701V2.98901H4.46154ZM4.46154 4.96703V6.96703H6.46154V4.96703H4.46154ZM1.98901 4.96703V2.96703H1.98701L1.98901 4.96703ZM1 5.95604L-1 5.95405V5.95604H1ZM1 13.8681H-1L-0.999999 13.8701L1 13.8681ZM1.98901 14.8571L1.98701 16.8571H1.98901V14.8571ZM13.8571 14.8571V16.8571H13.8591L13.8571 14.8571ZM14.8462 13.8681L16.8462 13.8701V13.8681H14.8462ZM14.8462 5.95604H16.8462V5.95405L14.8462 5.95604ZM1.98901 13.8681H-0.0109891V15.8681H1.98901V13.8681ZM1.98901 5.95604V3.95604H-0.0109891V5.95604H1.98901ZM4.46154 5.95604H6.46154V3.95604H4.46154V5.95604ZM4.46154 6.94505V8.94505H6.46154V6.94505H4.46154ZM3.47253 6.94505V4.94505H1.47253V6.94505H3.47253ZM3.47253 7.93407H1.47253V9.93407H3.47253V7.93407ZM4.46154 7.93407H6.46154V5.93407H4.46154V7.93407ZM4.46154 8.92308V10.9231H6.46154V8.92308H4.46154ZM3.47253 8.92308V6.92308H1.47253V8.92308H3.47253ZM3.47253 9.91209H1.47253V11.9121H3.47253V9.91209ZM4.46154 9.91209H6.46154V7.91209H4.46154V9.91209ZM4.46154 10.9011V12.9011H6.46154V10.9011H4.46154ZM3.47253 10.9011V8.9011H1.47253V10.9011H3.47253ZM3.47253 11.8901H1.47253V13.8901H3.47253V11.8901ZM4.46154 11.8901H6.46154V9.89011H4.46154V11.8901ZM4.46154 13.8681V15.8681H6.46154V13.8681H4.46154ZM10.3956 13.8681V15.8681H12.3956V13.8681H10.3956ZM5.45055 13.8681H3.45055V15.8681H5.45055V13.8681ZM5.45055 2.98901V0.989012H3.45055V2.98901H5.45055ZM10.3956 2.98901H12.3956V0.989012H10.3956V2.98901ZM13.8571 13.8681V15.8681H15.8571V13.8681H13.8571ZM11.3846 13.8681H9.38461V15.8681H11.3846V13.8681ZM11.3846 11.8901V9.89011H9.38461V11.8901H11.3846ZM12.3736 11.8901V13.8901H14.3736V11.8901H12.3736ZM12.3736 10.9011H14.3736V8.9011H12.3736V10.9011ZM11.3846 10.9011H9.38461V12.9011H11.3846V10.9011ZM11.3846 9.91209V7.91209H9.38461V9.91209H11.3846ZM12.3736 9.91209V11.9121H14.3736V9.91209H12.3736ZM12.3736 8.92308H14.3736V6.92308H12.3736V8.92308ZM11.3846 8.92308H9.38461V10.9231H11.3846V8.92308ZM11.3846 7.93407V5.93407H9.38461V7.93407H11.3846ZM12.3736 7.93407V9.93407H14.3736V7.93407H12.3736ZM12.3736 6.94505H14.3736V4.94505H12.3736V6.94505ZM11.3846 6.94505H9.38461V8.94505H11.3846V6.94505ZM11.3846 5.95604V3.95604H9.38461V5.95604H11.3846ZM13.8571 5.95604H15.8571V3.95604H13.8571V5.95604ZM13.8571 2.96703H11.3846V6.96703H13.8571V2.96703ZM13.3846 4.96703V2.98901H9.38461V4.96703H13.3846ZM13.3846 2.98701C13.3838 2.19505 13.0689 1.43575 12.5089 0.875751L9.68044 3.70418C9.49127 3.51501 9.38488 3.25853 9.38462 2.99101L13.3846 2.98701ZM12.5089 0.875751C11.9489 0.315749 11.1896 0.000791773 10.3976 9.97008e-07L10.3936 4C10.1261 3.99973 9.8696 3.89334 9.68044 3.70418L12.5089 0.875751ZM10.3956 9.97008e-07L5.45055 0V4H10.3956V9.97008e-07ZM5.44855 1.99401e-06C4.65659 0.000792771 3.89729 0.31575 3.33729 0.875751L6.16572 3.70418C5.97655 3.89334 5.72007 3.99973 5.45255 4L5.44855 1.99401e-06ZM3.33729 0.875751C2.77729 1.43575 2.46233 2.19505 2.46154 2.98701L6.46154 2.99101C6.46127 3.25853 6.35488 3.51501 6.16572 3.70418L3.33729 0.875751ZM2.46154 2.98901V4.96703H6.46154V2.98901H2.46154ZM4.46154 2.96703H1.98901V6.96703H4.46154V2.96703ZM1.98701 2.96703C1.19505 2.96782 0.435752 3.28278 -0.12425 3.84278L2.70418 6.67121C2.51501 6.86037 2.25853 6.96676 1.99101 6.96703L1.98701 2.96703ZM-0.12425 3.84278C-0.684252 4.40279 -0.999209 5.16208 -1 5.95405L3 5.95804C2.99973 6.22556 2.89334 6.48205 2.70418 6.67121L-0.12425 3.84278ZM-1 5.95604V13.8681H3V5.95604H-1ZM-0.999999 13.8701C-0.999208 14.6621 -0.684253 15.4214 -0.12425 15.9814L2.70418 13.153C2.89334 13.3421 2.99973 13.5986 3 13.8661L-0.999999 13.8701ZM-0.12425 15.9814C0.435754 16.5414 1.19505 16.8563 1.98701 16.8571L1.99101 12.8571C2.25853 12.8574 2.51501 12.9638 2.70418 13.153L-0.12425 15.9814ZM1.98901 16.8571H13.8571V12.8571H1.98901V16.8571ZM13.8591 16.8571C14.6511 16.8563 15.4104 16.5414 15.9704 15.9814L13.142 13.153C13.3311 12.9638 13.5876 12.8574 13.8551 12.8571L13.8591 16.8571ZM15.9704 15.9814C16.5304 15.4214 16.8454 14.6621 16.8462 13.8701L12.8462 13.8661C12.8464 13.5986 12.9528 13.3421 13.142 13.153L15.9704 15.9814ZM16.8462 13.8681V5.95604H12.8462V13.8681H16.8462ZM16.8462 5.95405C16.8454 5.16209 16.5304 4.40279 15.9704 3.84278L13.142 6.67121C12.9528 6.48204 12.8464 6.22556 12.8462 5.95804L16.8462 5.95405ZM15.9704 3.84278C15.4104 3.28278 14.6511 2.96782 13.8591 2.96703L13.8551 6.96703C13.5876 6.96676 13.3311 6.86037 13.142 6.67121L15.9704 3.84278ZM3.98901 13.8681V5.95604H-0.0109891V13.8681H3.98901ZM1.98901 7.95604H4.46154V3.95604H1.98901V7.95604ZM2.46154 5.95604V6.94505H6.46154V5.95604H2.46154ZM4.46154 4.94505H3.47253V8.94505H4.46154V4.94505ZM1.47253 6.94505V7.93407H5.47253V6.94505H1.47253ZM3.47253 9.93407H4.46154V5.93407H3.47253V9.93407ZM2.46154 7.93407V8.92308H6.46154V7.93407H2.46154ZM4.46154 6.92308H3.47253V10.9231H4.46154V6.92308ZM1.47253 8.92308V9.91209H5.47253V8.92308H1.47253ZM3.47253 11.9121H4.46154V7.91209H3.47253V11.9121ZM2.46154 9.91209V10.9011H6.46154V9.91209H2.46154ZM4.46154 8.9011H3.47253V12.9011H4.46154V8.9011ZM1.47253 10.9011V11.8901H5.47253V10.9011H1.47253ZM3.47253 13.8901H4.46154V9.89011H3.47253V13.8901ZM2.46154 11.8901V13.8681H6.46154V11.8901H2.46154ZM4.46154 11.8681H1.98901V15.8681H4.46154V11.8681ZM10.3956 11.8681H5.45055V15.8681H10.3956V11.8681ZM7.45055 13.8681V2.98901H3.45055V13.8681H7.45055ZM5.45055 4.98901H10.3956V0.989012H5.45055V4.98901ZM8.3956 2.98901V13.8681H12.3956V2.98901H8.3956ZM13.8571 11.8681H11.3846V15.8681H13.8571V11.8681ZM13.3846 13.8681V11.8901H9.38461V13.8681H13.3846ZM11.3846 13.8901H12.3736V9.89011H11.3846V13.8901ZM14.3736 11.8901V10.9011H10.3736V11.8901H14.3736ZM12.3736 8.9011H11.3846V12.9011H12.3736V8.9011ZM13.3846 10.9011V9.91209H9.38461V10.9011H13.3846ZM11.3846 11.9121H12.3736V7.91209H11.3846V11.9121ZM14.3736 9.91209V8.92308H10.3736V9.91209H14.3736ZM12.3736 6.92308H11.3846V10.9231H12.3736V6.92308ZM13.3846 8.92308V7.93407H9.38461V8.92308H13.3846ZM11.3846 9.93407H12.3736V5.93407H11.3846V9.93407ZM14.3736 7.93407V6.94505H10.3736V7.93407H14.3736ZM12.3736 4.94505H11.3846V8.94505H12.3736V4.94505ZM13.3846 6.94505V5.95604H9.38461V6.94505H13.3846ZM11.3846 7.95604H13.8571V3.95604H11.3846V7.95604ZM11.8571 5.95604V13.8681H15.8571V5.95604H11.8571Z" fill="#333333"/>
</g>
<path d="M6.93359 3.97803H8.91161V4.96704H6.93359V3.97803ZM6.93359 5.95605H8.91161V6.94506H6.93359V5.95605ZM6.93359 7.93407H8.91161V8.92308H6.93359V7.93407Z" fill="#333333"/>
<path d="M6.93359 3.97803H8.91161V4.96704H6.93359V3.97803ZM6.93359 5.95605H8.91161V6.94506H6.93359V5.95605ZM6.93359 7.93407H8.91161V8.92308H6.93359V7.93407Z" stroke="#333333"/>
</svg>
