<svg width="19" height="19" viewBox="0 0 19 19" fill="none" xmlns="http://www.w3.org/2000/svg">
<g clip-path="url(#clip0_7900_460)">
<path d="M9.24661 8.1691C8.62177 8.16252 8.01283 7.97122 7.49648 7.61929C6.98014 7.26736 6.57945 6.77053 6.34488 6.19134C6.1103 5.61216 6.05232 4.97653 6.17824 4.36447C6.30417 3.7524 6.60837 3.19128 7.05254 2.75174C7.4967 2.31221 8.06097 2.0139 8.67431 1.89439C9.2877 1.77488 9.92271 1.83951 10.4993 2.08014C11.076 2.32076 11.5687 2.72663 11.9152 3.24664C12.2617 3.76665 12.4466 4.37755 12.4466 5.00243C12.4407 5.84625 12.1006 6.65334 11.5008 7.24689C10.901 7.84044 10.0904 8.17206 9.24661 8.1691ZM9.24661 2.94688C8.84155 2.95345 8.44745 3.07956 8.11383 3.30939C7.78021 3.53921 7.52194 3.86249 7.37146 4.23863C7.22097 4.61476 7.185 5.02698 7.26804 5.42349C7.35108 5.82001 7.54943 6.18315 7.83818 6.4673C8.12694 6.75145 8.49323 6.94394 8.89104 7.02059C9.28881 7.09724 9.7004 7.05463 10.0741 6.89812C10.4477 6.74161 10.7668 6.47817 10.9913 6.1409C11.2157 5.80362 11.3354 5.40755 11.3355 5.00243C11.3296 4.4533 11.1066 3.92882 10.7152 3.54364C10.3238 3.15846 9.79581 2.94391 9.24661 2.94688Z" fill="#333333"/>
<path d="M9.24506 8.29409C10.122 8.29716 10.9652 7.95256 11.5886 7.33574C12.2119 6.71892 12.5653 5.8802 12.5714 5.0033C12.5714 4.35376 12.3791 3.71786 12.019 3.17733C11.6588 2.63679 11.1467 2.2149 10.5473 1.96478C9.94776 1.71465 9.28766 1.64747 8.65015 1.7717C8.01259 1.89593 7.42604 2.20601 6.96434 2.66289C6.50265 3.11978 6.18644 3.70305 6.05555 4.33928C5.92465 4.9755 5.98492 5.63622 6.22875 6.23827C6.47258 6.84031 6.88909 7.35676 7.42582 7.72258C7.96256 8.0884 8.59553 8.28725 9.24506 8.29409ZM11.3102 8.90806L11.3058 8.80763L11.2067 8.79039C8.71561 8.35692 6.15114 8.75146 3.90556 9.9136L3.90234 9.9154C3.72461 10.0141 3.57745 10.1597 3.47695 10.3364C3.37677 10.5126 3.3268 10.7128 3.33246 10.9153V12.8913C3.33246 13.0718 3.40416 13.2449 3.53179 13.3725C3.65942 13.5002 3.83252 13.5719 4.01302 13.5719C4.19351 13.5719 4.36662 13.5002 4.49424 13.3725C4.62187 13.2449 4.69357 13.0718 4.69357 12.8913V11.0632C6.71213 10.069 8.99972 9.757 11.2121 10.1753L11.3671 10.2046L11.3602 10.0469L11.3102 8.90806ZM8.18448 3.41233C8.49763 3.19661 8.8675 3.07817 9.24766 3.07187C9.76356 3.06926 10.2596 3.27089 10.6273 3.63274C10.995 3.99459 11.2046 4.48724 11.2103 5.00309C11.2101 5.38334 11.0976 5.75507 10.887 6.07165C10.6762 6.38841 10.3765 6.63583 10.0256 6.78283C9.67456 6.92982 9.28806 6.96984 8.91442 6.89785C8.54081 6.82586 8.1968 6.64508 7.9256 6.3782C7.6544 6.11134 7.46811 5.77028 7.39012 5.39787C7.31213 5.02547 7.34592 4.63832 7.48725 4.28506C7.62859 3.9318 7.87115 3.62817 8.18448 3.41233Z" fill="#333333"/>
<path d="M17.3468 11.2059H13.7496V10.5087C13.7496 10.3282 13.6779 10.1551 13.5502 10.0275C13.4226 9.89982 13.2495 9.82812 13.069 9.82812C12.8885 9.82812 12.7154 9.89982 12.5878 10.0275C12.4602 10.1551 12.3885 10.3282 12.3885 10.5087V11.2059H8.4579C8.27741 11.2059 8.1043 11.2776 7.97667 11.4052C7.84905 11.5329 7.77734 11.706 7.77734 11.8865V17.442C7.77734 17.6225 7.84905 17.7956 7.97667 17.9232C8.1043 18.0509 8.27741 18.1226 8.4579 18.1226H17.3468C17.5273 18.1226 17.7004 18.0509 17.828 17.9232C17.9557 17.7956 18.0274 17.6225 18.0274 17.442V11.8865C18.0274 11.706 17.9557 11.5329 17.828 11.4052C17.7004 11.2776 17.5273 11.2059 17.3468 11.2059ZM16.6662 16.7615H9.13849V12.567H12.3885V12.6698C12.3885 12.8503 12.4602 13.0234 12.5878 13.151C12.7154 13.2786 12.8885 13.3503 13.069 13.3503C13.2495 13.3503 13.4226 13.2786 13.5502 13.151C13.6779 13.0234 13.7496 12.8503 13.7496 12.6698V12.567H16.6662V16.7615Z" fill="#333333"/>
<path d="M17.4664 6.90322C17.6361 6.99285 17.7783 7.12729 17.8772 7.29173C17.9761 7.45617 18.0281 7.64451 18.0278 7.83639M17.4664 6.90322L17.9028 7.83614ZM17.4664 6.90322C16.248 6.26411 14.9113 5.88305 13.5397 5.78347ZM17.4664 6.90322L13.3588 5.77147ZM18.0278 7.83639L17.9028 7.83614ZM18.0278 7.83639L17.9028 7.83614ZM18.0278 7.83639V9.5584C18.0278 9.7389 17.9561 9.912 17.8284 10.0396C17.7008 10.1672 17.5277 10.2389 17.3472 10.2389C17.1667 10.2389 16.9936 10.1672 16.866 10.0396C16.7384 9.912 16.6667 9.7389 16.6667 9.5584V8.0248M17.9028 7.83614V9.5584C17.9028 9.7057 17.8442 9.847 17.74 9.9512C17.6359 10.0554 17.4945 10.1139 17.3472 10.1139C17.1999 10.1139 17.0586 10.0554 16.9544 9.9512C16.8502 9.847 16.7917 9.7057 16.7917 9.5584V7.94725M16.6667 8.0248C16.6897 8.03609 16.7127 8.04749 16.7356 8.05899L16.7917 7.94725M16.6667 8.0248C15.5376 7.47135 14.3018 7.16898 13.0442 7.13888L12.8408 7.13401L12.9371 6.95474C13.1191 6.61619 13.2515 6.25329 13.3304 5.87714L13.3527 5.77107L13.3588 5.77147M16.6667 8.0248V7.94725H16.7917M16.7917 7.94725L13.3588 5.77147ZM13.0472 7.01391C13.0691 6.97315 13.0903 6.93204 13.1108 6.89061C13.0906 6.88998 13.0704 6.88943 13.0502 6.88895L13.0472 7.01391ZM13.0472 7.01391L13.1573 7.07309C13.1671 7.0549 13.1767 7.03665 13.1862 7.01834C13.1399 7.0165 13.0936 7.01502 13.0472 7.01391ZM13.3588 5.77147L13.349 5.8325L13.4591 5.80419L13.5339 5.78498C13.5358 5.78448 13.5378 5.78398 13.5397 5.78347M13.3588 5.77147L13.3794 5.64404C13.4138 5.42999 13.4319 5.21361 13.4333 4.9968C13.4334 4.82959 13.4227 4.66255 13.401 4.49675L13.3892 4.40577L13.4724 4.36718C13.7452 4.24071 13.9765 4.03957 14.1397 3.78706C14.3025 3.53507 14.3908 3.2422 14.3944 2.94223C14.3886 2.64982 14.3036 2.36444 14.1486 2.11641C13.9932 1.86786 13.7734 1.66613 13.5124 1.53273C13.2514 1.39932 12.9591 1.33925 12.6667 1.35891C12.3742 1.37858 12.0926 1.47724 11.8518 1.64438L11.7794 1.69463L11.7078 1.64333C11.3922 1.41744 11.0472 1.23586 10.6824 1.10366L10.4996 1.03742L10.6357 0.898608C10.9147 0.614168 11.2476 0.388198 11.6149 0.233908C11.9821 0.0796533 12.3764 0.000141342 12.7747 2.23418e-05M13.3588 5.77147L13.4608 5.77806C13.485 5.77963 13.5092 5.78128 13.5334 5.78302C13.5355 5.78317 13.5376 5.78332 13.5397 5.78347M13.5397 5.78347C14.1692 5.62027 14.7275 5.25413 15.1281 4.74165C15.5299 4.22758 15.7505 3.5951 15.7556 2.94266L15.7555 2.94047C15.7479 2.15595 15.4301 1.40634 14.8715 0.855388C14.313 0.304488 13.5592 -0.00301866 12.7747 2.23418e-05M11.1305 14.2167H11.0055V14.3417V15.1195V15.2445H11.1305H14.4417H14.5667V15.1195V14.3417V14.2167H14.4417H11.1305ZM5.15844 5.88262L5.15397 5.86141L5.16856 5.86256L5.13651 5.70074C5.09089 5.47036 5.06566 5.23642 5.06112 5.00161V4.63058V4.52119L4.9527 4.50668C4.54938 4.45271 4.18242 4.24527 3.9282 3.92754C3.67399 3.60981 3.5521 3.20628 3.58793 2.80095C3.62375 2.39562 3.81452 2.01972 4.12052 1.7515C4.42652 1.48328 4.82418 1.34342 5.23071 1.36102L5.23634 1.36113C5.66004 1.36037 6.06728 1.52511 6.37126 1.82026L6.45155 1.89821L6.53787 1.82701C6.81874 1.59535 7.12722 1.39937 7.45628 1.24355L7.60532 1.17298L7.4971 1.04855C7.10253 0.594848 6.57974 0.271358 5.99765 0.120718C5.41555 -0.0299306 4.80147 -0.000659674 4.23634 0.204668C3.67121 0.409998 3.18157 0.781748 2.83194 1.27092C2.48231 1.7601 2.28911 2.34373 2.2778 2.9449V2.94931C2.28997 3.68527 2.57607 4.39027 3.0802 4.92658C3.49946 5.37259 4.04446 5.67531 4.63816 5.79775C3.218 5.87715 1.82892 6.25501 0.562146 6.90837L0.561066 6.90894C0.392346 6.99806 0.251016 7.13136 0.152186 7.29459C0.053366 7.45781 0.000762 7.64483 0 7.83564V9.5584C0 9.7389 0.071696 9.912 0.199326 10.0396C0.326956 10.1672 0.500056 10.2389 0.680556 10.2389C0.861046 10.2389 1.03416 10.1672 1.16179 10.0396C1.28941 9.912 1.36112 9.7389 1.36112 9.5584V8.02504C2.63078 7.40695 4.03139 7.10466 5.44371 7.14442L5.66162 7.15055L5.55684 6.95939C5.37191 6.62197 5.23766 6.25915 5.15844 5.88262ZM13.525 4.48058C13.5473 4.65189 13.5585 4.82448 13.5583 4.99725L14.5194 2.94169C14.5159 3.26593 14.4207 3.58256 14.2447 3.8549C14.0687 4.12725 13.8192 4.34418 13.525 4.48058Z" fill="#333333"/>
</g>
<defs>
<clipPath id="clip0_7900_460">
<rect width="18.0278" height="18.1226" fill="white"/>
</clipPath>
</defs>
</svg>
