<svg width="19" height="19" viewBox="0 0 19 19" fill="none" xmlns="http://www.w3.org/2000/svg">
<path fill-rule="evenodd" clip-rule="evenodd" d="M3 7.5C3.83537 7.52352 4.5 8.18816 4.5 9C4.5 9.81184 3.83537 10.4765 3 10.5C2.16463 10.4765 1.5 9.81184 1.5 9C1.5 8.18816 2.16463 7.52352 3 7.5V7.5Z" stroke="#333333" stroke-width="1.5" stroke-linecap="round" stroke-linejoin="round"/>
<path fill-rule="evenodd" clip-rule="evenodd" d="M15.0302 10.4997C14.4208 10.512 13.8646 10.1543 13.623 9.5947C13.3813 9.03512 13.5023 8.38496 13.9291 7.94978C14.3558 7.5146 15.0035 7.38094 15.5677 7.61162C16.1318 7.84231 16.5003 8.39146 16.4999 9.00098C16.5076 9.82057 15.8498 10.4914 15.0302 10.4997V10.4997Z" stroke="#333333" stroke-width="1.5" stroke-linecap="round" stroke-linejoin="round"/>
<path fill-rule="evenodd" clip-rule="evenodd" d="M7.50031 15.0302C7.48802 14.4208 7.84573 13.8646 8.4053 13.623C8.96488 13.3813 9.61504 13.5023 10.0502 13.9291C10.4854 14.3558 10.6191 15.0035 10.3884 15.5677C10.1577 16.1318 9.60854 16.5003 8.99902 16.4999C8.17943 16.5076 7.50861 15.8498 7.50031 15.0302V15.0302Z" stroke="#333333" stroke-width="1.5" stroke-linecap="round" stroke-linejoin="round"/>
<path fill-rule="evenodd" clip-rule="evenodd" d="M10.5 3C10.4765 3.83537 9.81184 4.5 9 4.5C8.18816 4.5 7.52352 3.83537 7.5 3C7.52352 2.16463 8.18816 1.5 9 1.5C9.81184 1.5 10.4765 2.16463 10.5 3Z" stroke="#333333" stroke-width="1.5" stroke-linecap="round" stroke-linejoin="round"/>
<path fill-rule="evenodd" clip-rule="evenodd" d="M10.5059 9.00513C10.5059 9.83355 9.83429 10.5051 9.00586 10.5051C8.17743 10.5051 7.50586 9.83355 7.50586 9.00513C7.50586 8.1767 8.17743 7.50513 9.00586 7.50513C9.83429 7.50513 10.5059 8.1767 10.5059 9.00513V9.00513Z" stroke="#333333" stroke-width="1.5" stroke-linecap="round" stroke-linejoin="round"/>
<path d="M2.00005 7.49277C1.88163 7.88969 2.1074 8.30747 2.50433 8.42589C2.90125 8.54431 3.31902 8.31854 3.43745 7.92161L2.71875 7.70719L2.00005 7.49277ZM4.3798 6.11135C4.63702 5.78668 4.58233 5.31496 4.25766 5.05775C3.93298 4.80053 3.46127 4.85522 3.20405 5.17989L3.79193 5.64562L4.3798 6.11135ZM3.43745 10.0458C3.31902 9.64889 2.90125 9.42312 2.50433 9.54154C2.1074 9.65996 1.88163 10.0777 2.00005 10.4747L2.71875 10.2602L3.43745 10.0458ZM3.20405 12.7875C3.46127 13.1122 3.93298 13.1669 4.25766 12.9097C4.58233 12.6525 4.63702 12.1808 4.3798 11.8561L3.79193 12.3218L3.20405 12.7875ZM15.9569 10.4754C16.0753 10.0785 15.8496 9.66071 15.4526 9.54229C15.0557 9.42387 14.6379 9.64964 14.5195 10.0466L15.2382 10.261L15.9569 10.4754ZM13.5772 11.8568C13.3199 12.1815 13.3746 12.6532 13.6993 12.9104C14.024 13.1676 14.4957 13.113 14.7529 12.7883L14.165 12.3226L13.5772 11.8568ZM14.5195 7.92272C14.6379 8.31965 15.0557 8.54542 15.4526 8.427C15.8496 8.30857 16.0753 7.8908 15.9569 7.49388L15.2382 7.7083L14.5195 7.92272ZM14.7529 5.181C14.4957 4.85633 14.024 4.80164 13.6993 5.05885C13.3746 5.31607 13.3199 5.78778 13.5772 6.11246L14.165 5.64673L14.7529 5.181ZM7.4868 15.9628C7.88372 16.0812 8.30149 15.8554 8.41992 15.4585C8.53834 15.0616 8.31257 14.6438 7.91564 14.5254L7.70122 15.2441L7.4868 15.9628ZM6.10538 13.583C5.7807 13.3258 5.30899 13.3805 5.05177 13.7052C4.79456 14.0298 4.84924 14.5016 5.17392 14.7588L5.63965 14.1709L6.10538 13.583ZM10.0405 14.5254C9.64354 14.6438 9.41777 15.0616 9.53619 15.4585C9.65461 15.8554 10.0724 16.0812 10.4693 15.9628L10.2549 15.2441L10.0405 14.5254ZM12.7822 14.7588C13.1069 14.5016 13.1615 14.0298 12.9043 13.7052C12.6471 13.3805 12.1754 13.3258 11.8507 13.583L12.3165 14.1709L12.7822 14.7588ZM10.4703 2.00567C10.0734 1.88725 9.65559 2.11302 9.53716 2.50994C9.41874 2.90687 9.64451 3.32464 10.0414 3.44306L10.2559 2.72437L10.4703 2.00567ZM11.8517 4.38542C12.1764 4.64263 12.6481 4.58794 12.9053 4.26327C13.1625 3.9386 13.1078 3.46688 12.7832 3.20967L12.3174 3.79754L11.8517 4.38542ZM7.91686 3.44306C8.31378 3.32464 8.53956 2.90687 8.42113 2.50994C8.30271 2.11302 7.88494 1.88725 7.48802 2.00567L7.70244 2.72437L7.91686 3.44306ZM5.17514 3.20967C4.85046 3.46688 4.79578 3.9386 5.05299 4.26327C5.31021 4.58794 5.78192 4.64263 6.1066 4.38542L5.64087 3.79754L5.17514 3.20967ZM2.71875 7.70719L3.43745 7.92161C3.6337 7.2638 3.95353 6.64942 4.3798 6.11135L3.79193 5.64562L3.20405 5.17989C2.65942 5.86736 2.2508 6.65232 2.00005 7.49277L2.71875 7.70719ZM2.71875 10.2602L2.00005 10.4747C2.2508 11.3151 2.65942 12.1001 3.20405 12.7875L3.79193 12.3218L4.3798 11.8561C3.95353 11.318 3.6337 10.7036 3.43745 10.0458L2.71875 10.2602ZM15.2382 10.261L14.5195 10.0466C14.3233 10.7044 14.0034 11.3188 13.5772 11.8568L14.165 12.3226L14.7529 12.7883C15.2975 12.1008 15.7062 11.3159 15.9569 10.4754L15.2382 10.261ZM15.2382 7.7083L15.9569 7.49388C15.7062 6.65343 15.2975 5.86847 14.7529 5.181L14.165 5.64673L13.5772 6.11246C14.0034 6.65053 14.3233 7.26491 14.5195 7.92272L15.2382 7.7083ZM7.70122 15.2441L7.91564 14.5254C7.25783 14.3291 6.64345 14.0093 6.10538 13.583L5.63965 14.1709L5.17392 14.7588C5.86139 15.3034 6.64635 15.712 7.4868 15.9628L7.70122 15.2441ZM10.2549 15.2441L10.4693 15.9628C11.3098 15.712 12.0947 15.3034 12.7822 14.7588L12.3165 14.1709L11.8507 13.583C11.3127 14.0093 10.6983 14.3291 10.0405 14.5254L10.2549 15.2441ZM10.2559 2.72437L10.0414 3.44306C10.6992 3.63932 11.3136 3.95914 11.8517 4.38542L12.3174 3.79754L12.7832 3.20967C12.0957 2.66504 11.3107 2.25642 10.4703 2.00567L10.2559 2.72437ZM7.70244 2.72437L7.48802 2.00567C6.64757 2.25642 5.8626 2.66504 5.17514 3.20967L5.64087 3.79754L6.1066 4.38542C6.64467 3.95914 7.25905 3.63932 7.91686 3.44306L7.70244 2.72437Z" fill="#333333"/>
</svg>
