<svg width="18" height="18" viewBox="0 0 18 18" fill="none" xmlns="http://www.w3.org/2000/svg">
<path d="M6.29286 10.3745L5.42857 17L9 14.8182L12.5714 17L11.7071 10.3673M14 6.09091C14 8.90254 11.7614 11.1818 9 11.1818C6.23858 11.1818 4 8.90254 4 6.09091C4 3.27928 6.23858 1 9 1C11.7614 1 14 3.27928 14 6.09091ZM9.46668 3.97524L9.88891 4.65333C9.95557 4.76 10.1037 4.86667 10.2148 4.89714L10.9704 5.09524C11.4371 5.21714 11.563 5.62857 11.2593 6.00952L10.763 6.62667C10.6889 6.72571 10.6296 6.90095 10.6371 7.02286L10.6815 7.82286C10.7111 8.3181 10.3704 8.56953 9.92594 8.38667L9.20002 8.08952C9.08891 8.04381 8.90372 8.04381 8.79261 8.08952L8.06668 8.38667C7.62224 8.56953 7.2815 8.31048 7.31113 7.82286L7.35557 7.02286C7.36298 6.90095 7.30372 6.7181 7.22965 6.62667L6.73335 6.00952C6.42965 5.62857 6.55557 5.21714 7.02224 5.09524L7.7778 4.89714C7.89631 4.86667 8.04446 4.75238 8.10372 4.65333L8.52594 3.97524C8.79261 3.56381 9.20743 3.56381 9.46668 3.97524Z" stroke="#333333" stroke-width="1.5" stroke-linecap="round" stroke-linejoin="round"/>
</svg>
