<svg width="18" height="18" viewBox="0 0 18 18" fill="none" xmlns="http://www.w3.org/2000/svg">
<g clip-path="url(#clip0_7900_429)">
<mask id="mask0_7900_429" style="mask-type:luminance" maskUnits="userSpaceOnUse" x="0" y="0" width="18" height="18">
<path d="M18 0H0V18H18V0Z" fill="white"/>
</mask>
<g mask="url(#mask0_7900_429)">
<path d="M12.75 15.75V14.25C12.75 13.4544 12.4339 12.6913 11.8713 12.1287C11.3087 11.5661 10.5456 11.25 9.75 11.25H3.75C2.95435 11.25 2.19129 11.5661 1.62868 12.1287C1.06607 12.6913 0.75 13.4544 0.75 14.25V15.75" stroke="#333333" stroke-width="2" stroke-linecap="round" stroke-linejoin="round"/>
<path d="M6.75 8.25C8.40685 8.25 9.75 6.90685 9.75 5.25C9.75 3.59315 8.40685 2.25 6.75 2.25C5.09315 2.25 3.75 3.59315 3.75 5.25C3.75 6.90685 5.09315 8.25 6.75 8.25Z" stroke="#333333" stroke-width="2" stroke-linecap="round" stroke-linejoin="round"/>
<path d="M17.25 15.7499V14.2499C17.2495 13.5852 17.0283 12.9395 16.621 12.4141C16.2138 11.8888 15.6436 11.5136 15 11.3474" stroke="#333333" stroke-width="2" stroke-linecap="round" stroke-linejoin="round"/>
<path d="M12 2.34741C12.6453 2.51264 13.2173 2.88794 13.6257 3.41415C14.0342 3.94035 14.2559 4.58754 14.2559 5.25366C14.2559 5.91979 14.0342 6.56697 13.6257 7.09318C13.2173 7.61939 12.6453 7.99469 12 8.15991" stroke="#333333" stroke-width="2" stroke-linecap="round" stroke-linejoin="round"/>
</g>
</g>
<defs>
<clipPath id="clip0_7900_429">
<rect width="18" height="18" fill="white"/>
</clipPath>
</defs>
</svg>
