<svg width="16" height="16" viewBox="0 0 16 16" fill="none" xmlns="http://www.w3.org/2000/svg">
<path d="M13.0907 0.727051H2.90891C2.50726 0.727051 2.18164 1.05267 2.18164 1.45432V14.5452C2.18164 14.9469 2.50726 15.2725 2.90891 15.2725H13.0907C13.4924 15.2725 13.818 14.9469 13.818 14.5452V1.45432C13.818 1.05267 13.4924 0.727051 13.0907 0.727051Z" stroke="#333333" stroke-width="1.45455" stroke-linecap="round" stroke-linejoin="round"/>
<path d="M5.0918 13.0908H10.91" stroke="#333333" stroke-width="1.45455" stroke-linecap="round"/>
<path d="M5.0918 10.9092H8.00089" stroke="#333333" stroke-width="1.45455" stroke-linecap="round"/>
<path d="M6.77724 8.52902V3.23975H7.11609V8.52902H6.77724ZM7.91774 4.82652C7.89294 4.61715 7.7924 4.45462 7.61609 4.33892C7.43978 4.22322 7.22353 4.16536 6.96733 4.16536C6.78 4.16536 6.61609 4.19567 6.47559 4.25627C6.33647 4.31688 6.22766 4.40021 6.14915 4.50627C6.07201 4.61234 6.03344 4.73286 6.03344 4.86784C6.03344 4.98079 6.0603 5.0779 6.11402 5.15916C6.16912 5.23906 6.23937 5.30586 6.32476 5.35958C6.41017 5.41192 6.49969 5.45531 6.59336 5.48975C6.68702 5.5228 6.77311 5.54966 6.85162 5.57032L7.28137 5.68602C7.39157 5.71495 7.51416 5.7549 7.64915 5.80586C7.78551 5.85682 7.91567 5.92638 8.03964 6.01454C8.16499 6.10131 8.26829 6.21288 8.34956 6.34924C8.43083 6.48561 8.47146 6.65297 8.47146 6.85131C8.47146 7.07996 8.41154 7.28655 8.29171 7.47113C8.17325 7.65571 7.99969 7.8024 7.77105 7.9112C7.54377 8.02007 7.2676 8.07447 6.94253 8.07447C6.6395 8.07447 6.3771 8.02553 6.15534 7.92778C5.93496 7.82996 5.7614 7.6936 5.63468 7.51869C5.50934 7.34371 5.4384 7.14057 5.42188 6.90916H5.9508C5.96457 7.06895 6.01829 7.20118 6.11196 7.30589C6.207 7.40916 6.32683 7.48633 6.47146 7.53724C6.61746 7.58684 6.77449 7.61164 6.94253 7.61164C7.13812 7.61164 7.31374 7.57993 7.4694 7.51658C7.62504 7.45186 7.74832 7.36233 7.83923 7.24801C7.93014 7.13231 7.97559 6.99732 7.97559 6.84305C7.97559 6.70255 7.93633 6.58823 7.85782 6.50007C7.77931 6.41192 7.67601 6.34029 7.5479 6.2852C7.4198 6.2301 7.28137 6.18189 7.13262 6.14057L6.61196 5.99181C6.28137 5.89676 6.01967 5.76109 5.82683 5.58479C5.63399 5.40847 5.53758 5.17776 5.53758 4.89263C5.53758 4.65572 5.60162 4.44911 5.72972 4.2728C5.8592 4.09511 6.03276 3.95738 6.25038 3.85958C6.4694 3.7604 6.71388 3.71082 6.98385 3.71082C7.25658 3.71082 7.49901 3.75972 7.71113 3.85751C7.92325 3.95393 8.09129 4.08616 8.21526 4.2542C8.3406 4.42225 8.40672 4.61302 8.41361 4.82652H7.91774Z" fill="#333333" stroke="#333333" stroke-width="0.727273"/>
<path d="M6.7772 8.52871H6.59538V8.71053H6.7772V8.52871ZM6.7772 3.23944V3.05762H6.59538V3.23944H6.7772ZM7.11605 3.23944H7.29786V3.05762H7.11605V3.23944ZM7.11605 8.52871V8.71053H7.29786V8.52871H7.11605ZM7.9177 4.82621L7.73714 4.84759L7.75614 5.00802H7.9177V4.82621ZM6.14911 4.50596L6.00296 4.39778L6.00206 4.39902L6.14911 4.50596ZM6.11398 5.15885L5.96227 5.25913L5.96431 5.26208L6.11398 5.15885ZM6.32472 5.35927L6.22791 5.51318L6.22971 5.51429L6.32472 5.35927ZM6.59332 5.48944L6.53058 5.6601L6.53281 5.66088L6.59332 5.48944ZM6.85158 5.57001L6.89885 5.39444L6.89786 5.39418L6.85158 5.57001ZM7.28133 5.68571L7.23407 5.86128L7.23517 5.86157L7.28133 5.68571ZM8.0396 6.01423L7.93423 6.16241L7.9361 6.16371L8.0396 6.01423ZM8.29167 7.47082L8.13917 7.37184L8.13865 7.37264L8.29167 7.47082ZM5.63464 7.51838L5.48685 7.62427L5.4874 7.625L5.63464 7.51838ZM5.42184 6.90885V6.72704H5.22656L5.24048 6.92181L5.42184 6.90885ZM5.95076 6.90885L6.1319 6.89324L6.11757 6.72704H5.95076V6.90885ZM6.11192 7.30558L5.9764 7.42682L5.97811 7.42864L6.11192 7.30558ZM6.47142 7.53693L6.41098 7.70842L6.41295 7.70914L6.47142 7.53693ZM7.46936 7.51627L7.53791 7.68471L7.53918 7.6842L7.46936 7.51627ZM7.83919 7.2477L7.9815 7.36085L7.98216 7.36005L7.83919 7.2477ZM7.13258 6.14026L7.08263 6.31509L7.08392 6.31544L7.13258 6.14026ZM7.71109 3.8572L7.63496 4.02232L7.63585 4.02272L7.71109 3.8572ZM8.21522 4.25389L8.0689 4.36184L8.06948 4.36261L8.21522 4.25389ZM8.41357 4.82621V5.00802H8.60135L8.59529 4.82034L8.41357 4.82621ZM6.95902 8.52871V3.23944H6.59538V8.52871H6.95902ZM6.7772 3.42125H7.11605V3.05762H6.7772V3.42125ZM6.93423 3.23944V8.52871H7.29786V3.23944H6.93423ZM7.11605 8.34689H6.7772V8.71053H7.11605V8.34689ZM8.09826 4.80482C8.06714 4.5421 7.93701 4.33176 7.71581 4.1866L7.51629 4.49061C7.6477 4.57685 7.71867 4.69158 7.73714 4.84759L8.09826 4.80482ZM7.71581 4.1866C7.50402 4.04762 7.25125 3.98323 6.96729 3.98323V4.34687C7.19573 4.34687 7.37545 4.39818 7.51629 4.49061L7.71581 4.1866ZM6.96729 3.98323C6.76061 3.98323 6.57127 4.01666 6.40354 4.08901L6.54757 4.42291C6.66083 4.37405 6.79931 4.34687 6.96729 4.34687V3.98323ZM6.40354 4.08901C6.23965 4.16041 6.10312 4.26248 6.00296 4.39778L6.29524 4.61414C6.3521 4.53732 6.43322 4.47272 6.54757 4.42291L6.40354 4.08901ZM6.00206 4.39902C5.90162 4.53712 5.85158 4.69533 5.85158 4.86753H6.21522C6.21522 4.76976 6.24232 4.68693 6.29615 4.6129L6.00206 4.39902ZM5.85158 4.86753C5.85158 5.01031 5.88591 5.1436 5.96227 5.25913L6.26565 5.05859C6.23458 5.01158 6.21522 4.95065 6.21522 4.86753H5.85158ZM5.96431 5.26208C6.03396 5.36308 6.12248 5.44686 6.22791 5.51318L6.42154 5.20536C6.35617 5.16425 6.30419 5.11441 6.26365 5.05563L5.96431 5.26208ZM6.22971 5.51429C6.32529 5.57287 6.42563 5.62152 6.53058 5.6601L6.65606 5.31878C6.57368 5.2885 6.49496 5.25035 6.41973 5.20425L6.22971 5.51429ZM6.53281 5.66088C6.63016 5.69525 6.72108 5.72368 6.80531 5.74584L6.89786 5.39418C6.82506 5.37502 6.7438 5.34973 6.65384 5.31798L6.53281 5.66088ZM6.80432 5.74557L7.23407 5.86128L7.32861 5.51015L6.89885 5.39444L6.80432 5.74557ZM7.23517 5.86157C7.33789 5.88854 7.45434 5.92636 7.58488 5.97565L7.71333 5.63545C7.5739 5.58281 7.44517 5.54074 7.3275 5.50985L7.23517 5.86157ZM7.58488 5.97565C7.70579 6.02083 7.82256 6.083 7.93423 6.16241L8.14497 5.86605C8.0087 5.76914 7.86514 5.69219 7.71333 5.63545L7.58488 5.97565ZM7.9361 6.16371C8.03917 6.23506 8.12482 6.32706 8.19333 6.44202L8.5057 6.25586C8.41168 6.09808 8.29072 5.96694 8.14309 5.86474L7.9361 6.16371ZM8.19333 6.44202C8.25411 6.544 8.2896 6.67733 8.2896 6.851H8.65324C8.65324 6.62799 8.60746 6.4266 8.5057 6.25586L8.19333 6.44202ZM8.2896 6.851C8.2896 7.04596 8.23909 7.21792 8.13917 7.37184L8.44416 7.56987C8.58391 7.3546 8.65324 7.11335 8.65324 6.851H8.2896ZM8.13865 7.37264C8.0412 7.52449 7.89573 7.65024 7.69288 7.74674L7.84914 8.07511C8.10359 7.95402 8.30522 7.78638 8.44468 7.56907L8.13865 7.37264ZM7.69288 7.74674C7.49615 7.84093 7.24799 7.89234 6.94249 7.89234V8.25598C7.28714 8.25598 7.59132 8.1986 7.84914 8.07511L7.69288 7.74674ZM6.94249 7.89234C6.6586 7.89234 6.4223 7.84645 6.22866 7.76107L6.08156 8.09365C6.33146 8.20384 6.62033 8.25598 6.94249 8.25598V7.89234ZM6.22866 7.76107C6.03411 7.67467 5.88767 7.55773 5.78189 7.41169L5.4874 7.625C5.63506 7.82885 5.83533 7.98434 6.08156 8.09365L6.22866 7.76107ZM5.78244 7.41249C5.67817 7.26695 5.61752 7.09653 5.60319 6.8959L5.24048 6.92181C5.2592 7.18399 5.34042 7.41991 5.48685 7.62427L5.78244 7.41249ZM5.42184 7.09067H5.95076V6.72704H5.42184V7.09067ZM5.76961 6.92447C5.78626 7.11767 5.85285 7.28871 5.9764 7.42682L6.24741 7.18432C6.18363 7.11303 6.1428 7.0196 6.1319 6.89324L5.76961 6.92447ZM5.97811 7.42864C6.09511 7.55584 6.24096 7.64849 6.41098 7.70842L6.53184 7.36544C6.41262 7.32347 6.31881 7.26189 6.24572 7.18245L5.97811 7.42864ZM6.41295 7.70914C6.5794 7.76565 6.75634 7.79315 6.94249 7.79315V7.42951C6.79256 7.42951 6.65545 7.4074 6.52989 7.36478L6.41295 7.70914ZM6.94249 7.79315C7.15779 7.79315 7.35722 7.75824 7.53791 7.68471L7.4008 7.34791C7.27018 7.40107 7.11838 7.42951 6.94249 7.42951V7.79315ZM7.53918 7.6842C7.71881 7.60944 7.86867 7.50274 7.9815 7.36085L7.69688 7.13453C7.62789 7.2213 7.5312 7.29365 7.39953 7.34842L7.53918 7.6842ZM7.98216 7.36005C8.09952 7.21067 8.15737 7.03562 8.15737 6.84274H7.79373C7.79373 6.95839 7.76068 7.05333 7.69622 7.13536L7.98216 7.36005ZM8.15737 6.84274C8.15737 6.66659 8.10718 6.50641 7.99356 6.37884L7.72201 6.62069C7.76541 6.66942 7.79373 6.73789 7.79373 6.84274H8.15737ZM7.99356 6.37884C7.89444 6.26754 7.76785 6.18158 7.6197 6.11786L7.47602 6.45191C7.58408 6.49839 7.6641 6.55567 7.72201 6.62069L7.99356 6.37884ZM7.6197 6.11786C7.48332 6.0592 7.33707 6.00836 7.18124 5.96507L7.08392 6.31544C7.2256 6.3548 7.35621 6.40037 7.47602 6.45191L7.6197 6.11786ZM7.18253 5.96544L6.66186 5.81668L6.56168 6.16624L7.08263 6.31509L7.18253 5.96544ZM6.66186 5.81668C6.35005 5.72704 6.11613 5.60266 5.94948 5.45029L5.7041 5.71866C5.92312 5.9189 6.21233 6.0658 6.56168 6.16624L6.66186 5.81668ZM5.94948 5.45029C5.79799 5.31178 5.71936 5.1316 5.71936 4.89232H5.35572C5.35572 5.22329 5.46992 5.50455 5.7041 5.71866L5.94948 5.45029ZM5.71936 4.89232C5.71936 4.69028 5.77324 4.52187 5.87677 4.37936L5.58274 4.16541C5.43008 4.37552 5.35572 4.62054 5.35572 4.89232H5.71936ZM5.87677 4.37936C5.98606 4.22938 6.13354 4.11109 6.32487 4.02511L6.17582 3.69342C5.93188 3.80304 5.7324 3.96002 5.58274 4.16541L5.87677 4.37936ZM6.32487 4.02511C6.51757 3.93784 6.73652 3.89232 6.98381 3.89232V3.52869C6.69117 3.52869 6.42114 3.58234 6.17582 3.69342L6.32487 4.02511ZM6.98381 3.89232C7.23464 3.89232 7.45039 3.93722 7.63496 4.02232L7.78721 3.69208C7.54754 3.58159 7.27845 3.52869 6.98381 3.52869V3.89232ZM7.63585 4.02272C7.82309 4.10783 7.96539 4.22152 8.0689 4.36184L8.36154 4.14596C8.21712 3.95018 8.02333 3.79941 7.78632 3.69168L7.63585 4.02272ZM8.06948 4.36261C8.17216 4.50025 8.22613 4.65498 8.23184 4.83207L8.59529 4.82034C8.58723 4.57045 8.50898 4.34362 8.36096 4.14519L8.06948 4.36261ZM8.41357 4.64439H7.9177V5.00802H8.41357V4.64439Z" fill="#333333"/>
<path d="M6.59538 8.52871H6.7772V8.71053M6.59538 8.52871V8.71053H6.7772M6.59538 8.52871V3.23944M6.59538 8.52871H6.95902V3.23944H6.59538M6.7772 8.71053V8.34689H7.11605V8.71053M6.7772 8.71053H7.11605M6.7772 3.05762V3.23944H6.59538M6.7772 3.05762H6.59538V3.23944M6.7772 3.05762H7.11605M6.7772 3.05762V3.42125H7.11605V3.05762M7.29786 3.23944H7.11605V3.05762M7.29786 3.23944V3.05762H7.11605M7.29786 3.23944V8.52871M7.29786 3.23944H6.93423V8.52871H7.29786M7.11605 8.71053V8.52871H7.29786M7.11605 8.71053H7.29786V8.52871M7.73714 4.84759L7.9177 4.82621V5.00802M7.73714 4.84759L7.75614 5.00802H7.9177M7.73714 4.84759C7.71867 4.69158 7.6477 4.57685 7.51629 4.49061M7.73714 4.84759L8.09826 4.80482C8.06714 4.5421 7.93701 4.33176 7.71581 4.1866M7.9177 5.00802V4.64439H8.41357V5.00802M7.9177 5.00802H8.41357M7.61605 4.33861L7.51629 4.49061M7.51629 4.49061L7.71581 4.1866M7.51629 4.49061C7.37545 4.39818 7.19573 4.34687 6.96729 4.34687M6.47555 4.25596L6.40354 4.08901M6.40354 4.08901C6.57127 4.01666 6.76061 3.98323 6.96729 3.98323M6.40354 4.08901L6.54757 4.42291M6.40354 4.08901C6.23965 4.16041 6.10312 4.26248 6.00296 4.39778M6.00296 4.39778L6.14911 4.50596L6.00206 4.39902M6.00296 4.39778L6.00206 4.39902M6.00296 4.39778L6.29524 4.61414C6.3521 4.53732 6.43322 4.47272 6.54757 4.42291M6.00206 4.39902C5.90162 4.53712 5.85158 4.69533 5.85158 4.86753M6.00206 4.39902L6.29615 4.6129C6.24232 4.68693 6.21522 4.76976 6.21522 4.86753M5.96227 5.25913L6.11398 5.15885L5.96431 5.26208M5.96227 5.25913L5.96431 5.26208M5.96227 5.25913C5.88591 5.1436 5.85158 5.01031 5.85158 4.86753M5.96227 5.25913L6.26565 5.05859C6.23458 5.01158 6.21522 4.95065 6.21522 4.86753M5.96431 5.26208C6.03396 5.36308 6.12248 5.44686 6.22791 5.51318M5.96431 5.26208L6.26365 5.05563C6.30419 5.11441 6.35617 5.16425 6.42154 5.20536L6.22791 5.51318M6.22791 5.51318L6.32472 5.35927L6.22971 5.51429M6.22791 5.51318L6.22971 5.51429M6.22971 5.51429C6.32529 5.57287 6.42563 5.62152 6.53058 5.6601M6.22971 5.51429L6.41973 5.20425C6.49496 5.25035 6.57368 5.2885 6.65606 5.31878L6.53058 5.6601M6.53058 5.6601L6.59332 5.48944L6.53281 5.66088M6.53058 5.6601L6.53281 5.66088M6.53281 5.66088C6.63016 5.69525 6.72108 5.72368 6.80531 5.74584L6.89786 5.39418M6.53281 5.66088L6.65384 5.31798C6.7438 5.34973 6.82506 5.37502 6.89786 5.39418M6.89885 5.39444L6.85158 5.57001L6.89786 5.39418M6.89885 5.39444L6.89786 5.39418M6.89885 5.39444L7.32861 5.51015L7.23407 5.86128M6.89885 5.39444L6.80432 5.74557L7.23407 5.86128M7.23407 5.86128L7.28133 5.68571L7.23517 5.86157M7.23407 5.86128L7.23517 5.86157M7.23517 5.86157C7.33789 5.88854 7.45434 5.92636 7.58488 5.97565M7.23517 5.86157L7.3275 5.50985C7.44517 5.54074 7.5739 5.58281 7.71333 5.63545M7.64911 5.80554L7.58488 5.97565M7.58488 5.97565L7.71333 5.63545M7.58488 5.97565C7.70579 6.02083 7.82256 6.083 7.93423 6.16241M7.93423 6.16241L8.0396 6.01423L7.9361 6.16371M7.93423 6.16241L7.9361 6.16371M7.93423 6.16241L8.14497 5.86605C8.0087 5.76914 7.86514 5.69219 7.71333 5.63545M7.9361 6.16371C8.03917 6.23506 8.12482 6.32706 8.19333 6.44202M7.9361 6.16371L8.14309 5.86474C8.29072 5.96694 8.41168 6.09808 8.5057 6.25586M8.34952 6.34893L8.5057 6.25586M8.5057 6.25586L8.19333 6.44202M8.5057 6.25586C8.60746 6.4266 8.65324 6.62799 8.65324 6.851M8.13917 7.37184L8.29167 7.47082L8.13865 7.37264M8.13917 7.37184L8.13865 7.37264M8.13917 7.37184C8.23909 7.21792 8.2896 7.04596 8.2896 6.851M8.13917 7.37184L8.44416 7.56987C8.58391 7.3546 8.65324 7.11335 8.65324 6.851M8.13865 7.37264C8.0412 7.52449 7.89573 7.65024 7.69288 7.74674M8.13865 7.37264L8.44468 7.56907C8.30522 7.78638 8.10359 7.95402 7.84914 8.07511M7.77101 7.91089L7.69288 7.74674M7.69288 7.74674L7.84914 8.07511M7.69288 7.74674C7.49615 7.84093 7.24799 7.89234 6.94249 7.89234M6.1553 7.92747L6.08156 8.09365M6.08156 8.09365L6.22866 7.76107M6.08156 8.09365C6.33146 8.20384 6.62033 8.25598 6.94249 8.25598M6.08156 8.09365C5.83533 7.98434 5.63506 7.82885 5.4874 7.625M5.48685 7.62427L5.63464 7.51838L5.4874 7.625M5.48685 7.62427L5.4874 7.625M5.48685 7.62427C5.34042 7.41991 5.2592 7.18399 5.24048 6.92181M5.48685 7.62427L5.78244 7.41249C5.67817 7.26695 5.61752 7.09653 5.60319 6.8959L5.24048 6.92181M5.4874 7.625L5.78189 7.41169C5.88767 7.55773 6.03411 7.67467 6.22866 7.76107M5.42184 6.72704V6.90885L5.24048 6.92181M5.42184 6.72704H5.22656L5.24048 6.92181M5.42184 6.72704H5.95076M5.42184 6.72704V7.09067H5.95076V6.72704M6.1319 6.89324L5.95076 6.90885V6.72704M6.1319 6.89324L6.11757 6.72704H5.95076M6.1319 6.89324C6.1428 7.0196 6.18363 7.11303 6.24741 7.18432L5.9764 7.42682M6.1319 6.89324L5.76961 6.92447C5.78626 7.11767 5.85285 7.28871 5.9764 7.42682M5.9764 7.42682L6.11192 7.30558L5.97811 7.42864M5.9764 7.42682L5.97811 7.42864M5.97811 7.42864C6.09511 7.55584 6.24096 7.64849 6.41098 7.70842M5.97811 7.42864L6.24572 7.18245C6.31881 7.26189 6.41262 7.32347 6.53184 7.36544L6.41098 7.70842M6.41098 7.70842L6.47142 7.53693L6.41295 7.70914M6.41098 7.70842L6.41295 7.70914M6.41295 7.70914C6.5794 7.76565 6.75634 7.79315 6.94249 7.79315M6.41295 7.70914L6.52989 7.36478C6.65545 7.4074 6.79256 7.42951 6.94249 7.42951M7.53791 7.68471L7.46936 7.51627L7.53918 7.6842M7.53791 7.68471L7.53918 7.6842M7.53791 7.68471C7.35722 7.75824 7.15779 7.79315 6.94249 7.79315M7.53791 7.68471L7.4008 7.34791C7.27018 7.40107 7.11838 7.42951 6.94249 7.42951M7.53918 7.6842C7.71881 7.60944 7.86867 7.50274 7.9815 7.36085M7.53918 7.6842L7.39953 7.34842C7.5312 7.29365 7.62789 7.2213 7.69688 7.13453L7.9815 7.36085M7.9815 7.36085L7.83919 7.2477L7.98216 7.36005M7.9815 7.36085L7.98216 7.36005M7.98216 7.36005C8.09952 7.21067 8.15737 7.03562 8.15737 6.84274M7.98216 7.36005L7.69622 7.13536C7.76068 7.05333 7.79373 6.95839 7.79373 6.84274M7.85778 6.49976L7.99356 6.37884M7.99356 6.37884C8.10718 6.50641 8.15737 6.66659 8.15737 6.84274M7.99356 6.37884L7.72201 6.62069M7.99356 6.37884C7.89444 6.26754 7.76785 6.18158 7.6197 6.11786M7.54786 6.28489L7.47602 6.45191M7.47602 6.45191L7.6197 6.11786M7.47602 6.45191C7.58408 6.49839 7.6641 6.55567 7.72201 6.62069M7.47602 6.45191C7.35621 6.40037 7.2256 6.3548 7.08392 6.31544M7.08263 6.31509L7.13258 6.14026L7.08392 6.31544M7.08263 6.31509L7.08392 6.31544M7.08263 6.31509L6.56168 6.16624M7.08263 6.31509L7.18253 5.96544L6.66186 5.81668M7.08392 6.31544L7.18124 5.96507C7.33707 6.00836 7.48332 6.0592 7.6197 6.11786M6.61192 5.9915L6.56168 6.16624M6.56168 6.16624L6.66186 5.81668M6.56168 6.16624C6.21233 6.0658 5.92312 5.9189 5.7041 5.71866M5.82679 5.58448L5.7041 5.71866M5.7041 5.71866L5.94948 5.45029M5.7041 5.71866C5.46992 5.50455 5.35572 5.22329 5.35572 4.89232M5.72968 4.27249L5.58274 4.16541M5.58274 4.16541L5.87677 4.37936M5.58274 4.16541C5.43008 4.37552 5.35572 4.62054 5.35572 4.89232M5.58274 4.16541C5.7324 3.96002 5.93188 3.80304 6.17582 3.69342M6.25034 3.85927L6.32487 4.02511M6.32487 4.02511C6.13354 4.11109 5.98606 4.22938 5.87677 4.37936M6.32487 4.02511L6.17582 3.69342M6.32487 4.02511C6.51757 3.93784 6.73652 3.89232 6.98381 3.89232M7.63496 4.02232L7.71109 3.8572L7.63585 4.02272M7.63496 4.02232L7.63585 4.02272M7.63496 4.02232C7.45039 3.93722 7.23464 3.89232 6.98381 3.89232M7.63496 4.02232L7.78721 3.69208C7.54754 3.58159 7.27845 3.52869 6.98381 3.52869M7.63585 4.02272C7.82309 4.10783 7.96539 4.22152 8.0689 4.36184M7.63585 4.02272L7.78632 3.69168C8.02333 3.79941 8.21712 3.95018 8.36154 4.14596L8.0689 4.36184M8.0689 4.36184L8.21522 4.25389L8.06948 4.36261M8.0689 4.36184L8.06948 4.36261M8.06948 4.36261C8.17216 4.50025 8.22613 4.65498 8.23184 4.83207L8.59529 4.82034M8.06948 4.36261L8.36096 4.14519C8.50898 4.34362 8.58723 4.57045 8.59529 4.82034M8.41357 5.00802V4.82621L8.59529 4.82034M8.41357 5.00802H8.60135L8.59529 4.82034M7.71581 4.1866C7.50402 4.04762 7.25125 3.98323 6.96729 3.98323M6.96729 3.98323V4.34687M6.96729 4.34687C6.79931 4.34687 6.66083 4.37405 6.54757 4.42291M5.85158 4.86753H6.21522M8.19333 6.44202C8.25411 6.544 8.2896 6.67733 8.2896 6.851M8.2896 6.851H8.65324M7.84914 8.07511C7.59132 8.1986 7.28714 8.25598 6.94249 8.25598M6.94249 7.89234V8.25598M6.94249 7.89234C6.6586 7.89234 6.4223 7.84645 6.22866 7.76107M6.94249 7.79315V7.42951M8.15737 6.84274H7.79373M7.79373 6.84274C7.79373 6.73789 7.76541 6.66942 7.72201 6.62069M6.66186 5.81668C6.35005 5.72704 6.11613 5.60266 5.94948 5.45029M5.94948 5.45029C5.79799 5.31178 5.71936 5.1316 5.71936 4.89232M5.71936 4.89232H5.35572M5.71936 4.89232C5.71936 4.69028 5.77324 4.52187 5.87677 4.37936M6.17582 3.69342C6.42114 3.58234 6.69117 3.52869 6.98381 3.52869M6.98381 3.89232V3.52869" stroke="#333333" stroke-width="0.727273"/>
</svg>
