<svg width="14" height="18" viewBox="0 0 14 18" fill="none" xmlns="http://www.w3.org/2000/svg">
<path d="M7 12.5383C7.41421 12.5383 7.75 12.2025 7.75 11.7883C7.75 11.3741 7.41421 11.0383 7 11.0383V11.7883V12.5383ZM11.65 6.99551C11.65 7.40973 11.9858 7.74551 12.4 7.74551C12.8142 7.74551 13.15 7.40973 13.15 6.99551H12.4H11.65ZM1.13079 11.1341L1.79884 10.7932L1.79884 10.7932L1.13079 11.1341ZM1.65521 11.6577L1.9953 10.9893L1.9953 10.9893L1.65521 11.6577ZM11.7448 4.1306L12.0849 3.46214L12.0849 3.46214L11.7448 4.1306ZM12.2692 4.65423L11.6012 4.99513L11.6012 4.99513L12.2692 4.65423ZM1.65521 4.1306L1.31512 3.46214L1.31512 3.46214L1.65521 4.1306ZM1.13079 4.65423L0.462744 4.31333L0.462744 4.31333L1.13079 4.65423ZM10.15 11.1892C10.15 10.775 9.81421 10.4392 9.4 10.4392C8.98579 10.4392 8.65 10.775 8.65 11.1892H9.4H10.15ZM9.83416 13.968L10.1692 14.639L10.1692 14.639L9.83416 13.968ZM10.4658 13.6526L10.8008 14.3236L10.8008 14.3236L10.4658 13.6526ZM10.7342 13.6526L10.3992 14.3236L10.3992 14.3236L10.7342 13.6526ZM11.3658 13.968L11.0308 14.639L11.0308 14.639L11.3658 13.968ZM12.55 11.1892C12.55 10.775 12.2142 10.4392 11.8 10.4392C11.3858 10.4392 11.05 10.775 11.05 11.1892H11.8H12.55ZM3.4 6.24551C2.98579 6.24551 2.65 6.5813 2.65 6.99551C2.65 7.40973 2.98579 7.74551 3.4 7.74551V6.99551V6.24551ZM6.4 7.74551C6.81421 7.74551 7.15 7.40973 7.15 6.99551C7.15 6.5813 6.81421 6.24551 6.4 6.24551V6.99551V7.74551ZM3.4 8.04282C2.98579 8.04282 2.65 8.37861 2.65 8.79282C2.65 9.20704 2.98579 9.54282 3.4 9.54282V8.79282V8.04282ZM4.6 9.54282C5.01421 9.54282 5.35 9.20704 5.35 8.79282C5.35 8.37861 5.01421 8.04282 4.6 8.04282V8.79282V9.54282ZM2.92 4V4.75H10.48V4V3.25H2.92V4ZM1 9.87121H1.75V5.91713H1H0.25V9.87121H1ZM7 11.7883V11.0383H2.92V11.7883V12.5383H7V11.7883ZM12.4 5.91713H11.65V6.99551H12.4H13.15V5.91713H12.4ZM1 9.87121H0.25C0.25 10.1943 0.249415 10.4819 0.268847 10.7194C0.288999 10.9656 0.334352 11.2234 0.462744 11.475L1.13079 11.1341L1.79884 10.7932C1.79644 10.7885 1.7764 10.7504 1.76385 10.597C1.75059 10.4349 1.75 10.2191 1.75 9.87121H1ZM2.92 11.7883V11.0383C2.57161 11.0383 2.35536 11.0378 2.19283 11.0245C2.03902 11.0119 2.0004 10.9919 1.9953 10.9893L1.65521 11.6577L1.31512 12.3262C1.56672 12.4542 1.82446 12.4994 2.07086 12.5195C2.30853 12.5389 2.59633 12.5383 2.92 12.5383V11.7883ZM1.13079 11.1341L0.462743 11.475C0.64985 11.8417 0.948298 12.1396 1.31512 12.3262L1.65521 11.6577L1.9953 10.9893C1.91054 10.9462 1.84183 10.8775 1.79884 10.7932L1.13079 11.1341ZM10.48 4V4.75C10.8284 4.75 11.0446 4.75058 11.2072 4.76384C11.361 4.77639 11.3996 4.79647 11.4047 4.79906L11.7448 4.1306L12.0849 3.46214C11.8333 3.33413 11.5755 3.28891 11.3291 3.26881C11.0915 3.24942 10.8037 3.25 10.48 3.25V4ZM12.4 5.91713H13.15C13.15 5.59399 13.1506 5.30647 13.1312 5.06898C13.111 4.82271 13.0656 4.56494 12.9373 4.31333L12.2692 4.65423L11.6012 4.99513C11.6036 4.99983 11.6236 5.03798 11.6361 5.19131C11.6494 5.35344 11.65 5.56921 11.65 5.91713H12.4ZM11.7448 4.1306L11.4047 4.79906C11.4895 4.84218 11.5582 4.91088 11.6012 4.99513L12.2692 4.65423L12.9373 4.31334C12.7502 3.94667 12.4517 3.64876 12.0849 3.46214L11.7448 4.1306ZM2.92 4V3.25C2.59633 3.25 2.30853 3.24942 2.07086 3.26881C1.82446 3.28891 1.56672 3.33413 1.31512 3.46214L1.65521 4.1306L1.9953 4.79906C2.0004 4.79647 2.03902 4.77639 2.19283 4.76384C2.35536 4.75058 2.57161 4.75 2.92 4.75V4ZM1 5.91713H1.75C1.75 5.56921 1.75059 5.35344 1.76385 5.19131C1.7764 5.03798 1.79644 4.99983 1.79884 4.99513L1.13079 4.65423L0.462744 4.31333C0.334352 4.56494 0.288999 4.82271 0.268847 5.06898C0.249415 5.30647 0.25 5.59399 0.25 5.91713H1ZM1.65521 4.1306L1.31512 3.46214C0.948298 3.64876 0.64985 3.94667 0.462744 4.31333L1.13079 4.65423L1.79884 4.99513C1.84183 4.91088 1.91054 4.84218 1.9953 4.79906L1.65521 4.1306ZM13 8.79282H12.25C12.25 9.70105 11.5123 10.4392 10.6 10.4392V11.1892V11.9392C12.3386 11.9392 13.75 10.5316 13.75 8.79282H13ZM10.6 11.1892V10.4392C9.68767 10.4392 8.95 9.70105 8.95 8.79282H8.2H7.45C7.45 10.5316 8.86136 11.9392 10.6 11.9392V11.1892ZM8.2 8.79282H8.95C8.95 7.88459 9.68767 7.14641 10.6 7.14641V6.39641V5.64641C8.86136 5.64641 7.45 7.05405 7.45 8.79282H8.2ZM10.6 6.39641V7.14641C11.5123 7.14641 12.25 7.88459 12.25 8.79282H13H13.75C13.75 7.05405 12.3386 5.64641 10.6 5.64641V6.39641ZM9.4 11.1892H8.65V13.7001H9.4H10.15V11.1892H9.4ZM9.83416 13.968L10.1692 14.639L10.8008 14.3236L10.4658 13.6526L10.1308 12.9816L9.49916 13.297L9.83416 13.968ZM10.7342 13.6526L10.3992 14.3236L11.0308 14.639L11.3658 13.968L11.7008 13.297L11.0692 12.9816L10.7342 13.6526ZM11.8 13.7001H12.55V11.1892H11.8H11.05V13.7001H11.8ZM11.3658 13.968L11.0308 14.639C11.7273 14.9867 12.55 14.4819 12.55 13.7001H11.8H11.05C11.05 13.3636 11.4033 13.1484 11.7008 13.297L11.3658 13.968ZM10.4658 13.6526L10.8008 14.3236C10.6744 14.3868 10.5256 14.3868 10.3992 14.3236L10.7342 13.6526L11.0692 12.9816C10.7738 12.8341 10.4262 12.8341 10.1308 12.9816L10.4658 13.6526ZM9.4 13.7001H8.65C8.65 14.4819 9.4727 14.9867 10.1692 14.639L9.83416 13.968L9.49916 13.297C9.79669 13.1484 10.15 13.3636 10.15 13.7001H9.4ZM3.4 6.99551V7.74551H6.4V6.99551V6.24551H3.4V6.99551ZM3.4 8.79282V9.54282H4.6V8.79282V8.04282H3.4V8.79282Z" fill="#333333"/>
<path d="M9.75004 8.78272L11.4882 8.78536" stroke="#333333" stroke-width="1.5" stroke-linecap="round" stroke-linejoin="round"/>
<path d="M10.6537 7.91545L10.586 9.65233" stroke="#333333" stroke-width="1.5" stroke-linecap="round" stroke-linejoin="round"/>
</svg>
