<svg width="14" height="18" viewBox="0 0 14 18" fill="none" xmlns="http://www.w3.org/2000/svg">
<path d="M10 9.84V11.64C10 14.04 9.04 15 6.64 15H4.36C1.96 15 1 14.04 1 11.64V9.36C1 6.96 1.96 6 4.36 6H6.16" stroke="#333333" stroke-width="1.5" stroke-linecap="round" stroke-linejoin="round"/>
<path d="M7 13V12" stroke="#333333" stroke-width="1.5" stroke-linecap="round"/>
<path d="M5 13V11" stroke="#333333" stroke-width="1.5" stroke-linecap="round"/>
<path d="M3 13V9" stroke="#333333" stroke-width="1.5" stroke-linecap="round"/>
<path d="M10 10H8C6.5 10 6 9.5 6 8V6L10 10Z" stroke="#333333" stroke-width="1.5" stroke-linecap="round" stroke-linejoin="round"/>
<path d="M4 5C4 3.89333 4.77726 3 5.74014 3H9" stroke="#333333" stroke-width="1.5" stroke-linecap="round" stroke-linejoin="round"/>
<path d="M13 7V10.4389C13 11.3 12.1032 12 11 12" stroke="#333333" stroke-width="1.5" stroke-linecap="round" stroke-linejoin="round"/>
<path d="M13 7H11C9.5 7 9 6.5 9 5V3L13 7Z" stroke="#333333" stroke-width="1.5" stroke-linecap="round" stroke-linejoin="round"/>
</svg>
