<svg width="16" height="20" viewBox="0 0 16 20" fill="none" xmlns="http://www.w3.org/2000/svg">
<g clip-path="url(#clip0_7900_480)">
<path d="M3.41818 11L1 17.1311L3.8 16.7705L5.55 19L7.58636 12.9016M12.5818 11L15 17.1311L12.2 16.7705L10.4818 19L8.41364 12.9016" stroke="#333333" stroke-width="1.5" stroke-miterlimit="10" stroke-linecap="round" stroke-linejoin="round"/>
<path d="M10.3659 5.39844L7.15755 8.60677L5.69922 7.14844" stroke="#333333" stroke-width="1.5" stroke-miterlimit="10" stroke-linecap="round" stroke-linejoin="round"/>
<path d="M8 1.72897L9.25581 1L10.1209 2.17757L11.5442 2.03738L11.8512 3.43925L13.2186 3.91589L12.9395 5.31776L14 6.29907L13.1628 7.47664L13.7488 8.82243L12.493 9.5514V10.9813L11.0419 11.1495L10.4558 12.4673L9.08837 12.0467L8 13L6.91163 12.0467L5.54419 12.4673L4.95814 11.1495L3.50698 10.9813V9.5514L2.25116 8.82243L2.83721 7.47664L2 6.29907L3.06047 5.31776L2.7814 3.91589L4.14884 3.43925L4.45581 2.03738L5.87907 2.17757L6.74419 1L8 1.72897Z" stroke="#333333" stroke-width="1.5" stroke-miterlimit="10" stroke-linecap="round" stroke-linejoin="round"/>
</g>
<defs>
<clipPath id="clip0_7900_480">
<rect width="16" height="20" fill="white"/>
</clipPath>
</defs>
</svg>
