<svg width="16" height="16" viewBox="0 0 16 16" fill="none" xmlns="http://www.w3.org/2000/svg">
<path fill-rule="evenodd" clip-rule="evenodd" d="M10.0013 4.66667C10.0013 6.13943 8.80739 7.33333 7.33464 7.33333C5.86188 7.33333 4.66797 6.13943 4.66797 4.66667C4.66797 3.19391 5.86188 2 7.33464 2C8.04188 2 8.72016 2.28095 9.22025 2.78105C9.72035 3.28115 10.0013 3.95942 10.0013 4.66667Z" stroke="#333333" stroke-width="1.5" stroke-linecap="round" stroke-linejoin="round"/>
<path d="M8.16732 9.3335H3.83398C2.45327 9.3335 1.33398 10.3782 1.33398 11.6668C1.33398 12.9555 2.45327 14.0002 3.83398 14.0002H10.834" stroke="#333333" stroke-width="1.5" stroke-linecap="round" stroke-linejoin="round"/>
<path d="M12.332 8V8.66667" stroke="#333333" stroke-width="1.5" stroke-linecap="round" stroke-linejoin="round"/>
<path d="M10 9.20068L10.7492 9.61015" stroke="#333333" stroke-width="1.5" stroke-linecap="round" stroke-linejoin="round"/>
<path d="M10.1673 11.64L10.9838 11.1686" stroke="#333333" stroke-width="1.5" stroke-linecap="round" stroke-linejoin="round"/>
<path d="M12.332 12.6667V12" stroke="#333333" stroke-width="1.5" stroke-linecap="round" stroke-linejoin="round"/>
<path d="M14.4403 11.99L13.668 11.4492" stroke="#333333" stroke-width="1.5" stroke-linecap="round" stroke-linejoin="round"/>
<path d="M14.4604 9.49999L13.606 9.89843" stroke="#333333" stroke-width="1.5" stroke-linecap="round" stroke-linejoin="round"/>
<path d="M12.3333 11.715C13.0697 11.715 13.6667 11.1181 13.6667 10.3817C13.6667 9.64529 13.0697 9.04834 12.3333 9.04834C11.597 9.04834 11 9.64529 11 10.3817C11 11.1181 11.597 11.715 12.3333 11.715Z" stroke="#333333" stroke-width="1.5" stroke-linecap="round" stroke-linejoin="round"/>
</svg>
