<svg width="16" height="16" viewBox="0 0 16 16" fill="none" xmlns="http://www.w3.org/2000/svg">
<path fill-rule="evenodd" clip-rule="evenodd" d="M9.61679 4.85416C9.61605 5.69309 8.9355 6.37265 8.09657 6.37216C7.25764 6.37167 6.57788 5.69132 6.57813 4.85239C6.57837 4.01345 7.25853 3.3335 8.09746 3.3335C8.50059 3.33367 8.88713 3.49398 9.17206 3.77917C9.45699 4.06435 9.61697 4.45103 9.61679 4.85416Z" stroke="#333333" stroke-width="1.5" stroke-linecap="round" stroke-linejoin="round"/>
<path fill-rule="evenodd" clip-rule="evenodd" d="M9.66406 8.61279H6.53073C5.43603 8.64718 4.56641 9.54455 4.56641 10.6398C4.56641 11.735 5.43603 12.6324 6.53073 12.6668H9.66406C10.7588 12.6324 11.6284 11.735 11.6284 10.6398C11.6284 9.54455 10.7588 8.64718 9.66406 8.61279V8.61279Z" stroke="#333333" stroke-width="1.5" stroke-linecap="round" stroke-linejoin="round"/>
<path fill-rule="evenodd" clip-rule="evenodd" d="M13.4588 6.01618C13.4584 6.65785 12.938 7.17776 12.2963 7.17752C11.6547 7.17727 11.1346 6.65696 11.1348 6.01529C11.1349 5.37363 11.6551 4.85352 12.2968 4.85352C12.6051 4.85352 12.9007 4.97603 13.1187 5.19409C13.3366 5.41215 13.4589 5.70789 13.4588 6.01618V6.01618Z" stroke="#333333" stroke-width="1.5" stroke-linecap="round" stroke-linejoin="round"/>
<path fill-rule="evenodd" clip-rule="evenodd" d="M2.55469 6.016C2.55469 6.65776 3.07493 7.178 3.71669 7.178C4.35844 7.178 4.87869 6.65776 4.87869 6.016C4.87869 5.37425 4.35844 4.854 3.71669 4.854C3.07493 4.854 2.55469 5.37425 2.55469 6.016V6.016Z" stroke="#333333" stroke-width="1.5" stroke-linecap="round" stroke-linejoin="round"/>
<path d="M12.624 8.30957C12.2098 8.30957 11.874 8.64536 11.874 9.05957C11.874 9.47378 12.2098 9.80957 12.624 9.80957V9.05957V8.30957ZM13.4954 9.05957L13.5109 8.30973C13.5057 8.30962 13.5005 8.30957 13.4954 8.30957L13.4954 9.05957ZM13.4954 12.1602V12.9102C13.5005 12.9102 13.5057 12.9102 13.5109 12.9101L13.4954 12.1602ZM12.624 11.4102C12.2098 11.4102 11.874 11.746 11.874 12.1602C11.874 12.5745 12.2098 12.9102 12.624 12.9102V12.1602V11.4102ZM3.38985 9.80957C3.80406 9.80957 4.13985 9.47378 4.13985 9.05957C4.13985 8.64536 3.80406 8.30957 3.38985 8.30957V9.05957V9.80957ZM2.51852 9.05957V8.30957C2.51333 8.30957 2.50815 8.30962 2.50297 8.30973L2.51852 9.05957ZM2.51852 12.1602L2.50297 12.9101C2.50815 12.9102 2.51333 12.9102 2.51852 12.9102L2.51852 12.1602ZM3.38985 12.9102C3.80406 12.9102 4.13985 12.5745 4.13985 12.1602C4.13985 11.746 3.80406 11.4102 3.38985 11.4102V12.1602V12.9102ZM12.624 9.05957V9.80957H13.4954V9.05957V8.30957H12.624V9.05957ZM13.4954 9.05957L13.4798 9.80941C13.9154 9.81844 14.2639 10.1742 14.2639 10.6099H15.0139H15.7639C15.7639 9.35787 14.7627 8.33569 13.5109 8.30973L13.4954 9.05957ZM15.0139 10.6099H14.2639C14.2639 11.0456 13.9154 11.4014 13.4798 11.4104L13.4954 12.1602L13.5109 12.9101C14.7627 12.8841 15.7639 11.8619 15.7639 10.6099H15.0139ZM13.4954 12.1602V11.4102H12.624V12.1602V12.9102H13.4954V12.1602ZM3.38985 9.05957V8.30957H2.51852V9.05957V9.80957H3.38985V9.05957ZM2.51852 9.05957L2.50297 8.30973C1.2512 8.33569 0.25 9.35787 0.25 10.6099H1H1.75C1.75 10.1742 2.09843 9.81844 2.53407 9.80941L2.51852 9.05957ZM1 10.6099H0.25C0.25 11.8619 1.2512 12.8841 2.50297 12.9101L2.51852 12.1602L2.53407 11.4104C2.09843 11.4014 1.75 11.0456 1.75 10.6099H1ZM2.51852 12.1602V12.9102H3.38985V12.1602V11.4102H2.51852V12.1602Z" fill="#333333"/>
</svg>
