<svg width="16" height="16" viewBox="0 0 16 16" fill="none" xmlns="http://www.w3.org/2000/svg">
<path fill-rule="evenodd" clip-rule="evenodd" d="M6.2449 8.48691H9.82897C10.4787 8.48111 11.1042 8.74353 11.5688 9.21688C12.0343 9.69114 12.3002 10.3385 12.3082 11.0167L12.3083 11.0254V11.9395C12.3083 12.3315 12.0033 12.6493 11.627 12.6493C11.2508 12.6493 10.9458 12.3315 10.9458 11.9395V11.0303C10.9413 10.7294 10.8229 10.4424 10.6163 10.2318C10.4088 10.0204 10.1292 9.90337 9.83899 9.90641L9.83212 9.90649L6.23488 9.90645C5.94467 9.9034 5.66514 10.0204 5.45764 10.2318C5.25101 10.4424 5.1326 10.7294 5.12808 11.0303V11.9395C5.12808 12.3315 4.82309 12.6493 4.44685 12.6493C4.07062 12.6493 3.76562 12.3315 3.76562 11.9395V11.0167C3.77363 10.3385 4.03958 9.69114 4.50506 9.21688C4.96966 8.74353 5.5952 8.48111 6.2449 8.48691Z" fill="#333333"/>
<path fill-rule="evenodd" clip-rule="evenodd" d="M8.03472 4.41953C7.40522 4.41953 6.92106 4.93539 6.92106 5.53849C6.92106 6.1416 7.40522 6.65745 8.03472 6.65745C8.66421 6.65745 9.14838 6.1416 9.14838 5.53849C9.14838 4.93539 8.66421 4.41953 8.03472 4.41953ZM5.55859 5.53849C5.55859 4.12164 6.68163 3 8.03472 3C9.3878 3 10.5108 4.12164 10.5108 5.53849C10.5108 6.95534 9.3878 8.07698 8.03472 8.07698C6.68163 8.07698 5.55859 6.95534 5.55859 5.53849Z" fill="#333333"/>
<path fill-rule="evenodd" clip-rule="evenodd" d="M12.3104 9.08721C12.3993 8.70631 12.7677 8.47258 13.1333 8.56517C13.6622 8.69912 14.1331 9.01319 14.4713 9.4576C14.8094 9.902 14.9955 10.4513 15.0001 11.0184V11.0243V11.9384C15.0001 12.3304 14.6951 12.6482 14.3189 12.6482C13.9426 12.6482 13.6376 12.3304 13.6376 11.9384V11.0276C13.6351 10.7776 13.5528 10.5355 13.4036 10.3395C13.254 10.1428 13.0456 10.0038 12.8115 9.94454C12.4459 9.85196 12.2216 9.46812 12.3104 9.08721Z" fill="#333333"/>
<path fill-rule="evenodd" clip-rule="evenodd" d="M3.68968 9.08721C3.60082 8.70631 3.23241 8.47258 2.86682 8.56517C2.3379 8.69912 1.86702 9.01319 1.52886 9.4576C1.19069 9.902 1.00458 10.4513 1.00005 11.0184L1 11.0243L1.00002 11.9384C1.00002 12.3304 1.30502 12.6482 1.68126 12.6482C2.05749 12.6482 2.36249 12.3304 2.36249 11.9384V11.0276C2.36504 10.7776 2.44735 10.5355 2.59649 10.3395C2.74615 10.1428 2.95454 10.0038 3.18862 9.94454C3.55421 9.85196 3.77854 9.46812 3.68968 9.08721Z" fill="#333333"/>
<path fill-rule="evenodd" clip-rule="evenodd" d="M10.5152 3.60378C10.6033 3.22268 10.9712 2.98816 11.337 3.07996C11.8672 3.21303 12.3395 3.52706 12.6787 3.97208C13.0179 4.4171 13.2044 4.96753 13.2087 5.53577L13.2088 5.54662C13.2047 6.11501 13.0181 6.66564 12.679 7.11083C12.3398 7.55602 11.8674 7.87018 11.337 8.00329C10.9712 8.09509 10.6033 7.86057 10.5152 7.47947C10.4271 7.09838 10.6522 6.71502 11.0179 6.62323C11.2527 6.56432 11.4617 6.42529 11.6118 6.22826C11.7609 6.03265 11.8433 5.79106 11.8462 5.54143C11.8432 5.29188 11.7607 5.05037 11.6117 4.85484C11.4616 4.65789 11.2526 4.51891 11.0179 4.46002C10.6522 4.36823 10.4271 3.98487 10.5152 3.60378Z" fill="#333333"/>
<path fill-rule="evenodd" clip-rule="evenodd" d="M5.48463 3.60378C5.39652 3.22268 5.02858 2.98816 4.66281 3.07996C4.13256 3.21303 3.66027 3.52706 3.3211 3.97208C2.98193 4.4171 2.79537 4.96753 2.7911 5.53577L2.79102 5.54662C2.7951 6.11501 2.98166 6.66564 3.32085 7.11083C3.66003 7.55602 4.13242 7.87018 4.66281 8.00329C5.02858 8.09509 5.39652 7.86057 5.48463 7.47947C5.57273 7.09838 5.34764 6.71502 4.98187 6.62323C4.74714 6.56432 4.53808 6.42529 4.38797 6.22826C4.23894 6.03265 4.15653 5.79106 4.15358 5.54143C4.15661 5.29188 4.23906 5.05037 4.38808 4.85484C4.53818 4.65789 4.7472 4.51891 4.98187 4.46002C5.34764 4.36823 5.57273 3.98487 5.48463 3.60378Z" fill="#333333"/>
</svg>
