<svg width="16" height="16" viewBox="0 0 16 16" fill="none" xmlns="http://www.w3.org/2000/svg">
<path d="M9.80043 11.6887L9.70801 11.7456C9.6589 11.6621 9.61388 11.5758 9.57324 11.487L9.73753 11.3844L10.1626 11.1191L10.094 10.7072C10.2863 11.5008 10.9675 12.1367 11.8502 12.1367C12.7096 12.1367 13.3765 11.5354 13.5894 10.7729L13.5288 11.1189L13.9591 11.3863L14.1235 11.4884C14.0829 11.5767 14.0382 11.6623 13.9897 11.745L13.9002 11.6896L13.4189 11.3916L13.0004 11.7728C12.8293 11.9286 12.6367 12.0471 12.4341 12.1235L11.9486 12.3065V12.8253V13.0245C11.8831 13.0272 11.817 13.0272 11.7506 13.0242V12.8253V12.3065L11.2651 12.1235C11.0625 12.0471 10.8699 11.9286 10.6988 11.7728L10.2813 11.3925L9.80043 11.6887ZM9.73753 9.11582L9.57303 9.01315C9.61347 8.92447 9.6582 8.8384 9.70686 8.75532L9.79815 8.81184L10.2795 9.1098L10.698 8.7286C10.869 8.57279 11.0616 8.45427 11.2642 8.37788L11.7497 8.19488V7.67609V7.47684C11.8153 7.47416 11.8814 7.47428 11.9478 7.47725V7.67598V8.19477L12.4332 8.37777C12.6358 8.45415 12.8284 8.57267 12.9995 8.72848L13.418 9.10971L13.8993 8.8117L13.9888 8.75632C14.0375 8.83923 14.0823 8.92517 14.123 9.01379L13.9578 9.11687L13.529 9.3845L13.5884 9.72392C13.3743 8.96271 12.7072 8.36328 11.8502 8.36328C10.9677 8.36328 10.2866 8.99889 10.0941 9.79224L10.1626 9.38112L9.73753 9.11582ZM7.31285 11.7196C7.47019 12.267 7.71883 12.7865 8.04299 13.25H1.76976C1.76184 13.2414 1.75 13.2216 1.75 13.1891C1.75 11.3102 3.16036 9.875 4.79101 9.875H7.00917C7.13187 9.875 7.25392 9.88393 7.37511 9.90098C7.42319 10.0218 7.48523 10.1376 7.56105 10.2454C7.26257 10.6618 7.17216 11.2111 7.31081 11.7124L7.31285 11.7196ZM7.95014 5C7.95014 6.29219 6.98455 7.25 5.90009 7.25C4.81563 7.25 3.85004 6.29219 3.85004 5C3.85004 3.70781 4.81563 2.75 5.90009 2.75C6.98455 2.75 7.95014 3.70781 7.95014 5Z" stroke="#333333" stroke-width="1.5"/>
</svg>
