<svg width="24" height="24" viewBox="0 0 24 24" fill="none" xmlns="http://www.w3.org/2000/svg">
<path d="M12 11.5C11.7239 11.5 11.5 11.7239 11.5 12C11.5 12.2761 11.7239 12.5 12 12.5V11.5ZM15 12.5C15.2761 12.5 15.5 12.2761 15.5 12C15.5 11.7239 15.2761 11.5 15 11.5V12.5ZM12 15.5C11.7239 15.5 11.5 15.7239 11.5 16C11.5 16.2761 11.7239 16.5 12 16.5V15.5ZM15 16.5C15.2761 16.5 15.5 16.2761 15.5 16C15.5 15.7239 15.2761 15.5 15 15.5V16.5ZM9 11.5C8.72386 11.5 8.5 11.7239 8.5 12C8.5 12.2761 8.72386 12.5 9 12.5V11.5ZM9.01 12.5C9.28614 12.5 9.51 12.2761 9.51 12C9.51 11.7239 9.28614 11.5 9.01 11.5V12.5ZM9 15.5C8.72386 15.5 8.5 15.7239 8.5 16C8.5 16.2761 8.72386 16.5 9 16.5V15.5ZM9.01 16.5C9.28614 16.5 9.51 16.2761 9.51 16C9.51 15.7239 9.28614 15.5 9.01 15.5V16.5ZM18.5 7V19H19.5V7H18.5ZM17 20.5H7V21.5H17V20.5ZM5.5 19V7H4.5V19H5.5ZM7 5.5H9V4.5H7V5.5ZM15 5.5H17V4.5H15V5.5ZM7 20.5C6.17157 20.5 5.5 19.8284 5.5 19H4.5C4.5 20.3807 5.61929 21.5 7 21.5V20.5ZM18.5 19C18.5 19.8284 17.8284 20.5 17 20.5V21.5C18.3807 21.5 19.5 20.3807 19.5 19H18.5ZM19.5 7C19.5 5.61929 18.3807 4.5 17 4.5V5.5C17.8284 5.5 18.5 6.17157 18.5 7H19.5ZM5.5 7C5.5 6.17157 6.17157 5.5 7 5.5V4.5C5.61929 4.5 4.5 5.61929 4.5 7H5.5ZM12 12.5H15V11.5H12V12.5ZM12 16.5H15V15.5H12V16.5ZM11 3.5H13V2.5H11V3.5ZM13 6.5H11V7.5H13V6.5ZM11 6.5C10.1716 6.5 9.5 5.82843 9.5 5H8.5C8.5 6.38071 9.61929 7.5 11 7.5V6.5ZM14.5 5C14.5 5.82843 13.8284 6.5 13 6.5V7.5C14.3807 7.5 15.5 6.38071 15.5 5H14.5ZM13 3.5C13.8284 3.5 14.5 4.17157 14.5 5H15.5C15.5 3.61929 14.3807 2.5 13 2.5V3.5ZM11 2.5C9.61929 2.5 8.5 3.61929 8.5 5H9.5C9.5 4.17157 10.1716 3.5 11 3.5V2.5ZM9 12.5H9.01V11.5H9V12.5ZM9 16.5H9.01V15.5H9V16.5Z" fill="#333333"/>
</svg>
