<svg width="20" height="20" viewBox="0 0 20 20" fill="none" xmlns="http://www.w3.org/2000/svg">
<path d="M10.0155 2.4248C7.25719 2.4248 5.01552 4.66647 5.01552 7.4248V9.83314C5.01552 10.3415 4.79885 11.1165 4.54052 11.5498L3.58219 13.1415C2.99052 14.1248 3.39885 15.2165 4.48219 15.5831C8.07385 16.7831 11.9489 16.7831 15.5405 15.5831C16.5489 15.2498 16.9905 14.0581 16.4405 13.1415L15.4822 11.5498C15.2322 11.1165 15.0155 10.3415 15.0155 9.83314V7.4248C15.0155 4.6748 12.7655 2.4248 10.0155 2.4248Z" stroke="#333333" stroke-width="1.5" stroke-miterlimit="10" stroke-linecap="round"/>
<path d="M11.5599 2.6667C11.3016 2.5917 11.0349 2.53337 10.7599 2.50003C9.9599 2.40003 9.19323 2.45837 8.47656 2.6667C8.71823 2.05003 9.31823 1.6167 10.0182 1.6167C10.7182 1.6167 11.3182 2.05003 11.5599 2.6667Z" stroke="#333333" stroke-width="1.5" stroke-miterlimit="10" stroke-linecap="round" stroke-linejoin="round"/>
<path d="M12.5156 15.8833C12.5156 17.2583 11.3906 18.3833 10.0156 18.3833C9.33229 18.3833 8.69896 18.1 8.24896 17.65C7.79896 17.2 7.51562 16.5666 7.51562 15.8833" stroke="#333333" stroke-width="1.5" stroke-miterlimit="10"/>
</svg>
