<svg width="20" height="20" viewBox="0 0 20 20" fill="none" xmlns="http://www.w3.org/2000/svg">
<path d="M10.7701 0C12.14 0 13.259 1.07867 13.3217 2.43168C15.7086 3.44103 17.3158 5.79575 17.3158 8.46131V12.1396C18.3857 12.2216 19.2317 13.1173 19.2317 14.209C19.2317 15.3546 18.3002 16.2845 17.1531 16.2845H4.38722C3.23937 16.2845 2.30859 15.3558 2.30859 14.209C2.30859 13.1176 3.15309 12.2215 4.22442 12.1396V8.46131C4.22442 5.7952 5.83165 3.44083 8.21849 2.43161C8.28138 1.07834 9.40133 0 10.7701 0ZM9.25753 3.74738C7.22618 4.39825 5.82093 6.29355 5.82093 8.46131V12.2926C5.82093 13.086 5.17725 13.7301 4.38473 13.7301C4.12039 13.7301 3.90511 13.9454 3.90511 14.209C3.90511 14.4732 4.1203 14.6879 4.38722 14.6879H17.1531C17.4191 14.6879 17.6351 14.4723 17.6351 14.209C17.6351 13.9458 17.419 13.7301 17.1555 13.7301C16.3617 13.7301 15.7194 13.088 15.7194 12.2926V8.46131C15.7194 6.29409 14.314 4.39835 12.2827 3.74742L11.7281 3.56967V2.55172C11.7281 2.02515 11.299 1.59652 10.7701 1.59652C10.242 1.59652 9.81222 2.02527 9.81222 2.55172V3.56966L9.25753 3.74738ZM7.73675 16.2845H9.33327C9.33327 17.078 9.97657 17.7213 10.7701 17.7213C11.5637 17.7213 12.207 17.078 12.207 16.2845H13.8035C13.8035 17.9598 12.4454 19.3178 10.7701 19.3178C9.09484 19.3178 7.73675 17.9598 7.73675 16.2845Z" fill="#333333"/>
</svg>
