<svg width="24" height="24" viewBox="0 0 24 24" fill="none" xmlns="http://www.w3.org/2000/svg">
<path d="M12 21V12" stroke="#333333" stroke-width="1.5" stroke-linecap="round" stroke-linejoin="round"/>
<path d="M11.9991 7H8.99905C4.49905 7 3.99904 1 8.07446 1C12.4991 1 11.9991 7 11.9991 7Z" stroke="#333333" stroke-width="1.5" stroke-linecap="round" stroke-linejoin="round"/>
<path d="M12.0166 7.00012H15.0009C17.7863 7.00012 17.5009 3.3333 15.5009 3.00012C11.5553 2.34281 12.0166 7.00012 12.0166 7.00012Z" stroke="#333333" stroke-width="1.5" stroke-linecap="round" stroke-linejoin="round"/>
<path d="M20 12V19C20 20.1046 19.1046 21 18 21H6C4.89543 21 4 20.1046 4 19V12M21 12V9C21 7.89543 20.1046 7 19 7H5C3.89543 7 3 7.89543 3 9V12H21Z" stroke="#333333" stroke-width="1.5" stroke-linecap="round" stroke-linejoin="round"/>
</svg>
