<svg width="18" height="18" viewBox="0 0 18 18" fill="none" xmlns="http://www.w3.org/2000/svg">
<g clip-path="url(#clip0_7900_536)">
<path d="M15.2333 11.3477C13.5856 12.988 11.2261 13.4921 9.15446 12.844L5.38718 16.6048C5.11523 16.8848 4.57934 17.0528 4.19541 16.9968L2.45174 16.7568C1.87586 16.6768 1.33996 16.1327 1.25198 15.5565L1.01202 13.8122C0.956032 13.4281 1.14 12.892 1.40395 12.6199L5.16322 8.85917C4.52335 6.77875 5.01925 4.41827 6.66694 2.77793C9.02648 0.417448 12.8577 0.417448 15.2253 2.77793C17.5928 5.13841 17.5928 8.9872 15.2333 11.3477Z" stroke="#333333" stroke-width="1.5" stroke-miterlimit="10" stroke-linecap="round" stroke-linejoin="round"/>
<path d="M5.00195 13.0076L6.00195 15.0076" stroke="#333333" stroke-width="1.5" stroke-miterlimit="10" stroke-linecap="round" stroke-linejoin="round"/>
<path d="M11.502 8.00757C12.3304 8.00757 13.002 7.336 13.002 6.50757C13.002 5.67914 12.3304 5.00757 11.502 5.00757C10.6735 5.00757 10.002 5.67914 10.002 6.50757C10.002 7.336 10.6735 8.00757 11.502 8.00757Z" stroke="#333333" stroke-width="1.5" stroke-linecap="round" stroke-linejoin="round"/>
</g>
<defs>
<clipPath id="clip0_7900_536">
<rect width="18" height="18" fill="white"/>
</clipPath>
</defs>
</svg>
