<svg width="18" height="18" viewBox="0 0 18 18" fill="none" xmlns="http://www.w3.org/2000/svg">
<g clip-path="url(#clip0_7900_424)">
<path d="M7.53156 10.3055L7.5927 10.1482V9.97944V9.97638V9.97341V9.97044V9.96747V9.9645V9.96153V9.95865V9.95568V9.95271V9.94974V9.94677V9.9438V9.94092V9.93795V9.93498V9.9321V9.92913V9.92616V9.92328V9.92031V9.91743V9.91446V9.91158V9.90861V9.90573V9.90285V9.89988V9.897V9.89412V9.89124V9.88836V9.88539V9.88251V9.87963V9.87675V9.87387V9.87099V9.86811V9.86523V9.86235V9.85956V9.85668V9.8538V9.85092V9.84813V9.84525V9.84237V9.83958V9.8367V9.83391V9.83103V9.82824V9.82536V9.82257V9.81969V9.8169V9.81411V9.81132V9.80844V9.80565V9.80286V9.80007V9.79728V9.79449V9.7917V9.78891V9.78612V9.78333V9.78054V9.77775V9.77505V9.77226V9.76947V9.76677V9.76398V9.76119V9.75849V9.7557V9.753V9.75021V9.74751V9.74481V9.74202V9.73932V9.73662V9.73392V9.73122V9.72843V9.72573V9.72303V9.72033V9.71763V9.71493V9.71232V9.70962V9.70692V9.70422V9.70152V9.69891V9.69621V9.6936V9.6909V9.68829V9.68559V9.68298V9.68028V9.67767V9.67506V9.67236V9.66975V9.66714V9.66453V9.66192V9.65931V9.6567V9.65409V9.65148C8.9676 8.95633 9.89915 7.50906 9.89915 5.85406C9.89915 3.54007 8.06974 1.61987 5.75914 1.61987C3.44854 1.61987 1.61914 3.54007 1.61914 5.85406C1.61914 7.5064 2.54769 8.95152 3.91896 9.64797L3.91706 9.8133L3.89818 11.4135C3.88451 12.5774 3.87066 13.787 3.87066 13.9917V14.4658L4.26152 14.7339C4.43804 14.855 4.89483 15.1693 5.1322 15.3647L5.77206 15.8915L6.34967 15.2971C6.47171 15.1715 6.63554 15.0157 6.81831 14.8421L6.82725 14.8336C6.99908 14.6703 7.18821 14.4907 7.33815 14.3364L7.75163 13.9109L7.52353 13.3632C7.46964 13.2338 7.42463 13.1287 7.3855 13.0374C7.34685 12.9472 7.31395 12.8704 7.28397 12.7969C7.37282 12.6089 7.45236 12.4306 7.53156 12.2268L7.65829 11.9008L7.53156 11.5747C7.51219 11.5249 7.48848 11.4626 7.46189 11.3926C7.41073 11.258 7.34891 11.0954 7.28684 10.9401C7.34891 10.7848 7.41073 10.6221 7.46189 10.4876C7.48848 10.4177 7.5122 10.3553 7.53156 10.3055Z" stroke="#333333" stroke-width="1.8"/>
<path d="M13.8605 9L11.0761 12.24L9.81055 10.7672" stroke="#333333" stroke-width="1.8" stroke-miterlimit="10" stroke-linecap="round" stroke-linejoin="round"/>
<path d="M6.57031 14.6701H15.3903C15.8874 14.6701 16.2903 14.2672 16.2903 13.7701V4.23008C16.2903 3.73303 15.8874 3.33008 15.3903 3.33008H9.00031" stroke="#333333" stroke-width="1.8"/>
<path d="M5.75984 6.93009C6.40602 6.93009 6.92984 6.40626 6.92984 5.76009C6.92984 5.11391 6.40602 4.59009 5.75984 4.59009C5.11367 4.59009 4.58984 5.11391 4.58984 5.76009C4.58984 6.40626 5.11367 6.93009 5.75984 6.93009Z" stroke="#333333" stroke-width="0.9"/>
</g>
<defs>
<clipPath id="clip0_7900_424">
<rect width="18" height="18" fill="white"/>
</clipPath>
</defs>
</svg>
