<svg width="16" height="14" viewBox="0 0 16 14" fill="none" xmlns="http://www.w3.org/2000/svg">
<g clip-path="url(#clip0_7900_361)">
<path fill-rule="evenodd" clip-rule="evenodd" d="M1.99935 0.333984H13.9993C14.7357 0.333984 15.3327 0.997266 15.3327 1.81547V4.03769C15.3327 4.85589 14.7357 5.51917 13.9993 5.51917H1.99935C1.26297 5.51917 0.666016 4.85589 0.666016 4.03769V1.81547C0.666016 0.997266 1.26297 0.333984 1.99935 0.333984ZM1.99935 1.07473C1.63116 1.07473 1.33268 1.40637 1.33268 1.81547V4.03769C1.33268 4.44679 1.63116 4.77843 1.99935 4.77843H13.9993C14.3675 4.77843 14.666 4.44679 14.666 4.03769V1.81547C14.666 1.40637 14.3675 1.07473 13.9993 1.07473H1.99935Z" fill="#333333"/>
<path d="M3.33321 6.26004L2.75586 5.14893H3.91056L3.33321 6.26004Z" fill="#333333"/>
<path d="M12.6671 6.26004L12.0898 5.14893H13.2445L12.6671 6.26004Z" fill="#333333"/>
<path d="M7.99923 6.26004L7.42188 5.14893H8.57657L7.99923 6.26004Z" fill="#333333"/>
<path fill-rule="evenodd" clip-rule="evenodd" d="M4.21043 2.1859C4.31457 2.30161 4.31457 2.48921 4.21043 2.60492L3.02187 3.92555L2.49998 3.34566C2.39584 3.22995 2.39584 3.04235 2.49998 2.92664C2.60412 2.81093 2.77296 2.81093 2.8771 2.92664L3.02187 3.08749L3.83331 2.1859C3.93745 2.07019 4.10629 2.07019 4.21043 2.1859Z" fill="#333333"/>
<path fill-rule="evenodd" clip-rule="evenodd" d="M8.87646 2.1859C8.9806 2.30161 8.9806 2.48921 8.87646 2.60492L7.6879 3.92555L7.166 3.34566C7.06186 3.22995 7.06186 3.04235 7.166 2.92664C7.27014 2.81093 7.43899 2.81093 7.54313 2.92664L7.6879 3.08749L8.49934 2.1859C8.60348 2.07019 8.77232 2.07019 8.87646 2.1859Z" fill="#333333"/>
<path fill-rule="evenodd" clip-rule="evenodd" d="M13.5444 2.1859C13.6486 2.30161 13.6486 2.48921 13.5444 2.60492L12.3559 3.92555L11.834 3.34566C11.7298 3.22995 11.7298 3.04235 11.834 2.92664C11.9381 2.81093 12.107 2.81093 12.2111 2.92664L12.3559 3.08749L13.1673 2.1859C13.2714 2.07019 13.4403 2.07019 13.5444 2.1859Z" fill="#333333"/>
<path fill-rule="evenodd" clip-rule="evenodd" d="M6.76459 8.59691C6.76459 8.43327 6.89592 8.30061 7.05792 8.30061H8.94363C9.10564 8.30061 9.23697 8.43327 9.23697 8.59691C9.23697 8.76055 9.10564 8.89321 8.94363 8.89321H7.05792C6.89592 8.89321 6.76459 8.76055 6.76459 8.59691ZM6.76459 10.1933C6.76459 10.0297 6.89592 9.89703 7.05792 9.89703H8.31506C8.47707 9.89703 8.6084 10.0297 8.6084 10.1933C8.6084 10.3569 8.47707 10.4896 8.31506 10.4896H7.05792C6.89592 10.4896 6.76459 10.3569 6.76459 10.1933ZM6.76459 11.7897C6.76459 11.6261 6.89592 11.4934 7.05792 11.4934H8.31506C8.47707 11.4934 8.6084 11.6261 8.6084 11.7897C8.6084 11.9534 8.47707 12.086 8.31506 12.086H7.05792C6.89592 12.086 6.76459 11.9534 6.76459 11.7897ZM6.45265 7.59308H9.5489C9.55127 7.59559 9.55416 7.59889 9.55754 7.60318C9.58291 7.6354 9.61411 7.70255 9.61411 7.7987V12.8689C9.61411 12.9651 9.58291 13.0322 9.55754 13.0644C9.55416 13.0687 9.55127 13.072 9.5489 13.0745H6.45265C6.45028 13.072 6.44739 13.0687 6.44401 13.0644C6.41864 13.0322 6.38744 12.9651 6.38744 12.8689V7.7987C6.38744 7.70255 6.41864 7.6354 6.44401 7.60318C6.44739 7.59889 6.45028 7.59559 6.45265 7.59308ZM6.42935 7.00049C6.0822 7.00049 5.80078 7.35786 5.80078 7.7987V12.8689C5.80078 13.3097 6.0822 13.6671 6.42935 13.6671H9.57221C9.91936 13.6671 10.2007 13.3097 10.2007 12.8689V7.7987C10.2007 7.35786 9.91936 7.00049 9.57221 7.00049H6.42935Z" fill="#333333"/>
<path fill-rule="evenodd" clip-rule="evenodd" d="M11.8974 8.59691C11.8974 8.43327 12.0287 8.30061 12.1907 8.30061H14.0764C14.2384 8.30061 14.3698 8.43327 14.3698 8.59691C14.3698 8.76055 14.2384 8.89321 14.0764 8.89321H12.1907C12.0287 8.89321 11.8974 8.76055 11.8974 8.59691ZM11.8974 10.1933C11.8974 10.0297 12.0287 9.89703 12.1907 9.89703H13.4479C13.6099 9.89703 13.7412 10.0297 13.7412 10.1933C13.7412 10.3569 13.6099 10.4896 13.4479 10.4896H12.1907C12.0287 10.4896 11.8974 10.3569 11.8974 10.1933ZM11.8974 11.7897C11.8974 11.6261 12.0287 11.4934 12.1907 11.4934H13.4479C13.6099 11.4934 13.7412 11.6261 13.7412 11.7897C13.7412 11.9534 13.6099 12.086 13.4479 12.086H12.1907C12.0287 12.086 11.8974 11.9534 11.8974 11.7897ZM11.5854 7.59308H14.6817C14.6841 7.59559 14.687 7.59889 14.6903 7.60318C14.7157 7.6354 14.7469 7.70255 14.7469 7.7987V12.8689C14.7469 12.9651 14.7157 13.0322 14.6903 13.0644C14.687 13.0687 14.6841 13.072 14.6817 13.0745H11.5854C11.5831 13.072 11.5802 13.0687 11.5768 13.0644C11.5514 13.0322 11.5202 12.9651 11.5202 12.8689V7.7987C11.5202 7.70255 11.5514 7.6354 11.5768 7.60318C11.5802 7.59889 11.5831 7.59559 11.5854 7.59308ZM11.5621 7.00049C11.215 7.00049 10.9336 7.35786 10.9336 7.7987V12.8689C10.9336 13.3097 11.215 13.6671 11.5621 13.6671H14.705C15.0521 13.6671 15.3336 13.3097 15.3336 12.8689V7.7987C15.3336 7.35786 15.0521 7.00049 14.705 7.00049H11.5621Z" fill="#333333"/>
<path fill-rule="evenodd" clip-rule="evenodd" d="M1.62982 8.59691C1.62982 8.43327 1.76115 8.30061 1.92316 8.30061H3.80887C3.97087 8.30061 4.1022 8.43327 4.1022 8.59691C4.1022 8.76055 3.97087 8.89321 3.80887 8.89321H1.92316C1.76115 8.89321 1.62982 8.76055 1.62982 8.59691ZM1.62982 10.1933C1.62982 10.0297 1.76115 9.89703 1.92316 9.89703H3.1803C3.3423 9.89703 3.47363 10.0297 3.47363 10.1933C3.47363 10.3569 3.3423 10.4896 3.1803 10.4896H1.92316C1.76115 10.4896 1.62982 10.3569 1.62982 10.1933ZM1.62982 11.7897C1.62982 11.6261 1.76115 11.4934 1.92316 11.4934H3.1803C3.3423 11.4934 3.47363 11.6261 3.47363 11.7897C3.47363 11.9534 3.3423 12.086 3.1803 12.086H1.92316C1.76115 12.086 1.62982 11.9534 1.62982 11.7897ZM1.31789 7.59308H4.41414C4.41651 7.59559 4.4194 7.59889 4.42278 7.60318C4.44815 7.6354 4.47935 7.70255 4.47935 7.7987V12.8689C4.47935 12.9651 4.44815 13.0322 4.42278 13.0644C4.4194 13.0687 4.41651 13.072 4.41414 13.0745H1.31789C1.31552 13.072 1.31263 13.0687 1.30925 13.0644C1.28388 13.0322 1.25268 12.9651 1.25268 12.8689V7.7987C1.25268 7.70255 1.28388 7.6354 1.30925 7.60318C1.31263 7.59889 1.31552 7.59559 1.31789 7.59308ZM1.29459 7.00049C0.947437 7.00049 0.666016 7.35786 0.666016 7.7987V12.8689C0.666016 13.3097 0.947437 13.6671 1.29459 13.6671H4.43744C4.78459 13.6671 5.06601 13.3097 5.06601 12.8689V7.7987C5.06601 7.35786 4.78459 7.00049 4.43744 7.00049H1.29459Z" fill="#333333"/>
</g>
<defs>
<clipPath id="clip0_7900_361">
<rect width="16" height="14" fill="white"/>
</clipPath>
</defs>
</svg>
