<svg width="17" height="21" viewBox="0 0 17 21" fill="none" xmlns="http://www.w3.org/2000/svg">
<g clip-path="url(#clip0_7900_466)">
<path d="M6.14648 1.1198V2.23643H6.72548H7.30447V2.81542V3.39441H8.37974H9.45501V2.81542V2.23643H9.99265H10.5303V1.1198V0.00317383H8.33838H6.14648V1.1198Z" fill="#333333"/>
<path d="M0.736147 4.2161L0 4.96051L0.686519 5.66358C1.067 6.05233 1.40612 6.37491 1.43921 6.37491C1.49711 6.37491 2.77916 5.08458 2.82052 4.97706C2.82879 4.94397 2.53102 4.59658 2.15881 4.19128L1.47229 3.47168L0.736147 4.2161Z" fill="#333333"/>
<path d="M14.6001 4.18906C14.2279 4.59435 13.9219 4.94175 13.9219 4.96656C13.9219 4.99138 14.2362 5.32223 14.6249 5.71098L15.328 6.41404L15.9566 5.79369C16.2957 5.45457 16.6101 5.11545 16.6514 5.041C16.7093 4.94175 16.5522 4.74324 15.998 4.18906L15.2701 3.46118L14.6001 4.18906Z" fill="#333333"/>
<path d="M6.93986 4.26354C3.84639 4.90871 1.51387 7.16678 0.752913 10.2602C0.521316 11.2032 0.504773 12.8326 0.719828 13.7756C1.05068 15.2313 1.76201 16.5464 2.78766 17.6134C4.24341 19.1188 5.96384 19.8963 8.04822 19.9956C10.1905 20.0948 12.25 19.2925 13.8051 17.7458C14.7811 16.778 15.5503 15.4546 15.9225 14.1064C16.0714 13.5522 16.1045 13.2296 16.1045 12.0799C16.1045 10.4505 15.9721 9.85496 15.327 8.54809C14.2765 6.42236 12.5395 4.99142 10.2401 4.37107C9.45434 4.15602 7.71736 4.09812 6.93986 4.26354ZM10.0747 6.48853C11.9771 7.09234 13.4163 8.6308 13.9291 10.5828C14.1442 11.3769 14.1607 12.6424 13.9705 13.4282C13.0937 17.1089 9.17312 18.9782 5.81496 17.3239C5.16153 17.0014 4.90512 16.8111 4.31785 16.2156C3.71405 15.6201 3.54035 15.3802 3.22604 14.7268C2.37409 12.9567 2.37409 11.2197 3.22604 9.44139C3.54035 8.78796 3.71405 8.54809 4.30958 7.94428C4.91339 7.34047 5.15325 7.15851 5.81496 6.83592C6.8406 6.33137 7.44441 6.19903 8.5445 6.24039C9.18139 6.2652 9.58668 6.33137 10.0747 6.48853Z" fill="#333333"/>
<path d="M8.1882 10.2858L5.64062 12.6183L6.7159 12.6431C7.31143 12.6514 7.79944 12.6845 7.79944 12.7093C7.79944 12.7672 6.31887 15.4885 6.03765 15.9682L5.86395 16.2577L6.03765 16.1336C6.1369 16.0675 7.29489 15.0418 8.61003 13.859L11.0087 11.7085L9.90035 11.6837C9.28828 11.6754 8.792 11.6423 8.792 11.6092C8.792 11.5844 9.19729 10.8317 9.69357 9.93845C10.7027 8.11876 10.7937 7.94507 10.7606 7.94507C10.744 7.94507 9.58605 8.99552 8.1882 10.2858Z" fill="#333333"/>
</g>
<defs>
<clipPath id="clip0_7900_466">
<rect width="17" height="21" fill="white"/>
</clipPath>
</defs>
</svg>
