<svg width="20" height="20" viewBox="0 0 20 20" fill="none" xmlns="http://www.w3.org/2000/svg">
<g clip-path="url(#clip0_7900_544)">
<path d="M18.7187 8.5204L17.9866 8.35724L17.9866 8.35724L18.7187 8.5204ZM17.8361 12.4802L17.104 12.3171L17.1038 12.3182L17.8361 12.4802ZM12.7746 16.999L12.8501 16.2527L12.8375 16.2516L12.7746 16.999ZM11.3156 16.7432L11.5002 16.0163L11.4978 16.0157L11.3156 16.7432ZM9.8026 16.3643L9.98481 15.6367L9.98431 15.6366L9.8026 16.3643ZM5.76785 9.51509L6.49989 9.67825L6.49997 9.67788L5.76785 9.51509ZM6.65046 5.54579L5.91854 5.38207L5.91834 5.383L6.65046 5.54579ZM7.31691 3.46167L7.99633 3.77934L7.99837 3.77489L7.31691 3.46167ZM13.1709 1.30176L12.9898 2.02958L12.992 2.03011L13.1709 1.30176ZM14.6749 1.67122L14.8541 0.942939L14.8538 0.942876L14.6749 1.67122ZM7.50247 11.6181C7.3775 12.0131 7.59634 12.4345 7.99126 12.5595C8.38617 12.6844 8.80762 12.4656 8.93258 12.0707L8.21752 11.8444L7.50247 11.6181ZM9.217 11.1718C9.34196 10.7769 9.12312 10.3555 8.72821 10.2305C8.33329 10.1055 7.91185 10.3244 7.78689 10.7193L8.50194 10.9456L9.217 11.1718ZM10.0198 12.4755C9.89485 12.8704 10.1137 13.2919 10.5086 13.4168C10.9035 13.5418 11.325 13.323 11.4499 12.9281L10.7349 12.7018L10.0198 12.4755ZM12.3032 10.2315C12.4281 9.8366 12.2093 9.41516 11.8144 9.2902C11.4195 9.16524 10.998 9.38408 10.8731 9.77899L11.5881 10.0053L12.3032 10.2315ZM12.5834 13.373C12.4585 13.7679 12.6773 14.1894 13.0722 14.3143C13.4671 14.4393 13.8886 14.2205 14.0136 13.8255L13.2985 13.5993L12.5834 13.373ZM15.1512 10.2302C15.2762 9.83525 15.0574 9.4138 14.6624 9.28884C14.2675 9.16388 13.8461 9.38272 13.7211 9.77763L14.4362 10.0039L15.1512 10.2302ZM16.2375 5.46115L16.9525 5.6874L17.172 4.99368L16.4853 4.75327L16.2375 5.46115ZM15.8754 5.66214L16.2379 6.31872L16.2394 6.31788L15.8754 5.66214ZM9.19928 6.21673C8.7875 6.17191 8.41735 6.46939 8.37254 6.88117C8.32772 7.29296 8.6252 7.6631 9.03699 7.70792L9.11813 6.96232L9.19928 6.21673ZM14.7763 4.15499C14.3853 4.01813 13.9574 4.2241 13.8206 4.61505C13.6837 5.006 13.8897 5.43388 14.2806 5.57074L14.5284 4.86286L14.7763 4.15499ZM14.9536 7.03265C14.8286 7.42757 15.0475 7.84901 15.4424 7.97396C15.8373 8.09892 16.2588 7.88007 16.3837 7.48515L15.6687 7.2589L14.9536 7.03265ZM10.6582 18.0221L10.4147 17.3127L10.4128 17.3134L10.6582 18.0221ZM9.23521 18.5147L9.4761 19.225L9.48057 19.2234L9.23521 18.5147ZM2.61571 14.9527L1.89895 15.1736L1.89912 15.1741L2.61571 14.9527ZM1.46293 11.2108L0.745856 11.4306L0.746169 11.4316L1.46293 11.2108ZM4.84022 4.24795L5.08111 4.95823L5.08558 4.95669L4.84022 4.24795ZM6.26319 3.75534L6.02589 3.04382L6.01784 3.04661L6.26319 3.75534ZM18.7187 8.5204L17.9866 8.35724L17.104 12.3171L17.8361 12.4802L18.5681 12.6434L19.4507 8.68356L18.7187 8.5204ZM17.8361 12.4802L17.1038 12.3182C16.7386 13.9689 16.2218 14.9877 15.5736 15.5712C14.9568 16.1264 14.1145 16.3807 12.8501 16.2528L12.7746 16.999L12.6992 17.7452C14.2446 17.9015 15.5548 17.6063 16.5771 16.686C17.568 15.7941 18.177 14.4114 18.5684 12.6422L17.8361 12.4802ZM12.7746 16.999L12.8375 16.2516C12.4352 16.2178 11.99 16.1406 11.5002 16.0163L11.3156 16.7432L11.1311 17.4701C11.686 17.611 12.2134 17.7044 12.7117 17.7463L12.7746 16.999ZM11.3156 16.7432L11.4978 16.0157L9.98481 15.6367L9.8026 16.3643L9.62039 17.0918L11.1334 17.4707L11.3156 16.7432ZM9.8026 16.3643L9.98431 15.6366C8.18717 15.1878 7.19185 14.5385 6.69174 13.6916C6.18644 12.8358 6.07386 11.5897 6.49989 9.67825L5.76785 9.51509L5.03582 9.35193C4.57925 11.4004 4.60626 13.1098 5.4001 14.4543C6.19912 15.8075 7.66247 16.6029 9.62089 17.0919L9.8026 16.3643ZM5.76785 9.51509L6.49997 9.67788L7.38257 5.70858L6.65046 5.54579L5.91834 5.383L5.03574 9.3523L5.76785 9.51509ZM6.65046 5.54579L7.38237 5.70951C7.55589 4.93378 7.75753 4.29004 7.99632 3.77933L7.31691 3.46167L6.6375 3.14401C6.33592 3.78904 6.10526 4.54735 5.91854 5.38207L6.65046 5.54579ZM7.31691 3.46167L7.99837 3.77489C8.46466 2.76041 9.04617 2.20801 9.76694 1.94636C10.5206 1.67276 11.5496 1.67126 12.9898 2.02958L13.1709 1.30176L13.352 0.573952C11.7841 0.183885 10.413 0.11607 9.25511 0.536386C8.06433 0.968652 7.22287 1.8704 6.63544 3.14845L7.31691 3.46167ZM13.1709 1.30176L12.992 2.03011L14.496 2.39957L14.6749 1.67122L14.8538 0.942876L13.3498 0.573418L13.1709 1.30176ZM14.6749 1.67122L14.4957 2.39951C16.3011 2.84367 17.2973 3.49313 17.7969 4.34005C18.3021 5.19665 18.4128 6.44498 17.9866 8.35724L18.7187 8.5204L19.4507 8.68356C19.9071 6.63599 19.8827 4.92393 19.0888 3.57798C18.2893 2.22237 16.8223 1.42716 14.8541 0.942939L14.6749 1.67122ZM8.21752 11.8444L8.93258 12.0707L9.217 11.1718L8.50194 10.9456L7.78689 10.7193L7.50247 11.6181L8.21752 11.8444ZM10.7349 12.7018L11.4499 12.9281L12.3032 10.2315L11.5881 10.0053L10.8731 9.77899L10.0198 12.4755L10.7349 12.7018ZM13.2985 13.5993L14.0136 13.8255L15.1512 10.2302L14.4362 10.0039L13.7211 9.77763L12.5834 13.373L13.2985 13.5993ZM16.2375 5.46115L15.8735 4.8054L15.5114 5.00639L15.8754 5.66214L16.2394 6.31788L16.6015 6.1169L16.2375 5.46115ZM15.8754 5.66214L15.5129 5.00555C13.6506 6.03369 11.4441 6.46105 9.19928 6.21673L9.11813 6.96232L9.03699 7.70792C11.5719 7.98381 14.0906 7.50418 16.2379 6.31872L15.8754 5.66214ZM14.5284 4.86286L14.2806 5.57074L15.9897 6.16903L16.2375 5.46115L16.4853 4.75327L14.7763 4.15499L14.5284 4.86286ZM16.2375 5.46115L15.5224 5.2349L14.9536 7.03265L15.6687 7.2589L16.3837 7.48515L16.9525 5.6874L16.2375 5.46115ZM12.7746 16.999L12.3394 16.3882C11.8599 16.7298 11.23 17.0329 10.4147 17.3127L10.6582 18.0221L10.9017 18.7315C11.7975 18.424 12.5726 18.0639 13.2099 17.6098L12.7746 16.999ZM10.6582 18.0221L10.4128 17.3134L8.98986 17.806L9.23521 18.5147L9.48057 19.2234L10.9035 18.7308L10.6582 18.0221ZM9.23521 18.5147L8.99433 17.8044C7.27936 18.3861 6.16507 18.3631 5.37578 17.9383C4.57618 17.508 3.89445 16.5511 3.3323 14.7314L2.61571 14.9527L1.89912 15.1741C2.49877 17.1153 3.33907 18.5456 4.66491 19.2592C6.00107 19.9783 7.61563 19.8559 9.47609 19.225L9.23521 18.5147ZM2.61571 14.9527L3.33247 14.7319L2.17968 10.99L1.46293 11.2108L0.746169 11.4316L1.89895 15.1736L2.61571 14.9527ZM1.46293 11.2108L2.18 10.991C1.62385 9.17662 1.6351 7.96531 2.05361 7.10045C2.46719 6.24575 3.37286 5.53755 5.0811 4.95822L4.84022 4.24795L4.59934 3.53769C2.73215 4.17093 1.37278 5.06372 0.703381 6.44708C0.0388982 7.82028 0.149218 9.48411 0.745856 11.4306L1.46293 11.2108ZM4.84022 4.24795L5.08558 4.95669L6.50854 4.46407L6.26319 3.75534L6.01784 3.04661L4.59487 3.53922L4.84022 4.24795ZM6.26319 3.75534L6.50048 4.46681C6.85806 4.34756 7.17514 4.25459 7.46329 4.19725L7.31691 3.46167L7.17053 2.72609C6.79223 2.80138 6.40683 2.91682 6.0259 3.04387L6.26319 3.75534Z" fill="#333333"/>
</g>
<defs>
<clipPath id="clip0_7900_544">
<rect width="20" height="20" fill="white"/>
</clipPath>
</defs>
</svg>
