<svg width="20" height="20" viewBox="0 0 20 20" fill="none" xmlns="http://www.w3.org/2000/svg">
<path fill-rule="evenodd" clip-rule="evenodd" d="M12.2008 9.19995C12.7531 9.19995 13.2008 9.64767 13.2008 10.2V16.2C13.2008 16.7523 12.7531 17.2 12.2008 17.2H11.8008C11.2485 17.2 10.8008 16.7523 10.8008 16.2V10.2C10.8008 9.64767 11.2485 9.19995 11.8008 9.19995H12.2008Z" fill="#333333"/>
<path fill-rule="evenodd" clip-rule="evenodd" d="M16.2008 6C16.7531 6 17.2008 6.44771 17.2008 7V16.2C17.2008 16.7523 16.7531 17.2 16.2008 17.2H15.8008C15.2485 17.2 14.8008 16.7523 14.8008 16.2V7C14.8008 6.44772 15.2485 6 15.8008 6H16.2008Z" fill="#333333"/>
<path fill-rule="evenodd" clip-rule="evenodd" d="M8.20078 12.3999C8.75306 12.3999 9.20078 12.8476 9.20078 13.3999V16.1999C9.20078 16.7522 8.75306 17.1999 8.20078 17.1999H7.80078C7.24849 17.1999 6.80078 16.7522 6.80078 16.1999V13.3999C6.80078 12.8476 7.24849 12.3999 7.80078 12.3999H8.20078Z" fill="#333333"/>
<path fill-rule="evenodd" clip-rule="evenodd" d="M4.20078 10.8C4.75306 10.8 5.20078 11.2477 5.20078 11.8V16.2C5.20078 16.7523 4.75306 17.2 4.20078 17.2H3.80078C3.24849 17.2 2.80078 16.7523 2.80078 16.2V11.8C2.80078 11.2477 3.24849 10.8 3.80078 10.8H4.20078Z" fill="#333333"/>
<path d="M4.00078 9.20005C4.66352 9.20005 5.20078 8.66279 5.20078 8.00005C5.20078 7.33731 4.66352 6.80005 4.00078 6.80005C3.33804 6.80005 2.80078 7.33731 2.80078 8.00005C2.80078 8.66279 3.33804 9.20005 4.00078 9.20005Z" fill="#333333"/>
<path d="M4 7.99995L8 9.59995L16 3.19995" stroke="#333333" stroke-linecap="round" stroke-linejoin="round"/>
<path d="M8.00078 10.7999C8.66352 10.7999 9.20078 10.2626 9.20078 9.5999C9.20078 8.93716 8.66352 8.3999 8.00078 8.3999C7.33804 8.3999 6.80078 8.93716 6.80078 9.5999C6.80078 10.2626 7.33804 10.7999 8.00078 10.7999Z" fill="#333333"/>
<path d="M12.0008 7.59995C12.6635 7.59995 13.2008 7.06269 13.2008 6.39995C13.2008 5.73721 12.6635 5.19995 12.0008 5.19995C11.338 5.19995 10.8008 5.73721 10.8008 6.39995C10.8008 7.06269 11.338 7.59995 12.0008 7.59995Z" fill="#333333"/>
<path d="M16.0008 4.4C16.6635 4.4 17.2008 3.86274 17.2008 3.2C17.2008 2.53726 16.6635 2 16.0008 2C15.338 2 14.8008 2.53726 14.8008 3.2C14.8008 3.86274 15.338 4.4 16.0008 4.4Z" fill="#333333"/>
<path d="M2 16.7H18" stroke="#333333"/>
</svg>
