<svg width="16" height="16" viewBox="0 0 16 16" fill="none" xmlns="http://www.w3.org/2000/svg">
<path d="M5.9987 14.6666H9.9987C13.332 14.6666 14.6654 13.3333 14.6654 9.99992V5.99992C14.6654 2.66659 13.332 1.33325 9.9987 1.33325H5.9987C2.66536 1.33325 1.33203 2.66659 1.33203 5.99992V9.99992C1.33203 13.3333 2.66536 14.6666 5.9987 14.6666Z" stroke="#333333" stroke-width="1.5" stroke-linecap="round" stroke-linejoin="round"/>
<path d="M5.96118 7.98912C5.95363 7.27119 5.36552 6.69531 4.64759 6.70286C3.92966 6.71041 3.35377 7.29854 3.36133 8.01647C3.36888 8.7344 3.95701 9.31028 4.67494 9.30273C5.39287 9.29518 5.96873 8.70705 5.96118 7.98912Z" stroke="#333333" stroke-width="1.5" stroke-linecap="round" stroke-linejoin="round"/>
<path d="M11.3638 10.8244C11.3568 10.1617 10.814 9.63012 10.1513 9.63709C9.48856 9.64406 8.95697 10.1869 8.96394 10.8496C8.97091 11.5123 9.5138 12.0439 10.1765 12.0369C10.8392 12.03 11.3708 11.4871 11.3638 10.8244Z" stroke="#333333" stroke-width="1.5" stroke-linecap="round" stroke-linejoin="round"/>
<path d="M11.3033 5.15789C11.2963 4.49518 10.7534 3.96361 10.0907 3.97058C9.42801 3.97755 8.89642 4.52043 8.90339 5.18313C8.91036 5.84584 9.45326 6.37741 10.116 6.37043C10.7787 6.36346 11.3102 5.82059 11.3033 5.15789Z" stroke="#333333" stroke-width="1.5" stroke-linecap="round" stroke-linejoin="round"/>
<path d="M6 7.59546C6.43169 7.64381 6.86047 7.3953 7.01758 6.97067L7.3071 6.19772C7.52685 5.6083 8.09588 5.2502 8.69372 5.2674" stroke="#333333" stroke-width="1.5" stroke-linecap="round" stroke-linejoin="round"/>
<path d="M6 8.60083C6.43169 8.55248 6.86047 8.80098 7.01758 9.22562L7.3071 9.99856C7.52685 10.588 8.09588 10.9461 8.69372 10.9289" stroke="#333333" stroke-width="1.5" stroke-linecap="round" stroke-linejoin="round"/>
</svg>
