<svg width="16" height="16" viewBox="0 0 16 16" fill="none" xmlns="http://www.w3.org/2000/svg">
<path d="M14.0007 9.33325H13.334V1.99991C13.334 1.8231 13.2638 1.65353 13.1388 1.52851C13.0137 1.40349 12.8442 1.33325 12.6673 1.33325H3.33398C3.15717 1.33325 2.9876 1.40349 2.86258 1.52851C2.73755 1.65353 2.66732 1.8231 2.66732 1.99991V9.33325H2.00065C1.82384 9.33325 1.65427 9.40349 1.52925 9.52851C1.40422 9.65353 1.33398 9.8231 1.33398 9.99992C1.33398 10.1767 1.40422 10.3463 1.52925 10.4713C1.65427 10.5963 1.82384 10.6666 2.00065 10.6666H7.33398V11.4332L4.30065 13.4332C4.17621 13.5103 4.08057 13.6261 4.0285 13.7629C3.97642 13.8997 3.97081 14.0498 4.01251 14.1901C4.05422 14.3303 4.14093 14.453 4.25927 14.5391C4.37761 14.6252 4.521 14.67 4.66732 14.6666C4.79838 14.6681 4.92662 14.6284 5.03398 14.5532L7.33398 13.0332V13.9999C7.33398 14.1767 7.40422 14.3463 7.52925 14.4713C7.65427 14.5963 7.82384 14.6666 8.00065 14.6666C8.17746 14.6666 8.34703 14.5963 8.47205 14.4713C8.59708 14.3463 8.66732 14.1767 8.66732 13.9999V13.0332L10.9673 14.5532C11.0747 14.6284 11.2029 14.6681 11.334 14.6666C11.4764 14.6655 11.6148 14.6188 11.7287 14.5333C11.8427 14.4479 11.9263 14.3282 11.9673 14.1918C12.0083 14.0554 12.0045 13.9094 11.9566 13.7753C11.9086 13.6412 11.8189 13.526 11.7007 13.4466L8.66732 11.4466V10.6666H14.0007C14.1775 10.6666 14.3471 10.5963 14.4721 10.4713C14.5971 10.3463 14.6673 10.1767 14.6673 9.99992C14.6673 9.8231 14.5971 9.65353 14.4721 9.52851C14.3471 9.40349 14.1775 9.33325 14.0007 9.33325ZM12.0007 9.33325H4.00065V2.66658H12.0007V9.33325ZM6.00065 7.99992C6.11045 7.99935 6.21842 7.97167 6.31495 7.91933C6.41148 7.86699 6.49359 7.79162 6.55398 7.69992L7.44065 6.36658L8.19398 7.12658C8.26393 7.19696 8.34871 7.25084 8.44213 7.28429C8.53555 7.31774 8.63526 7.32991 8.73398 7.31991C8.83227 7.30913 8.92693 7.27662 9.01111 7.22473C9.09528 7.17284 9.16686 7.10288 9.22065 7.01991L10.554 5.01992C10.6325 4.87354 10.6536 4.70312 10.613 4.54204C10.5725 4.38095 10.4732 4.24081 10.3348 4.14906C10.1963 4.0573 10.0286 4.02054 9.86441 4.04598C9.70026 4.07142 9.55152 4.15722 9.44732 4.28658L8.56065 5.61992L7.80732 4.85991C7.73737 4.78953 7.65259 4.73565 7.55917 4.70221C7.46575 4.66876 7.36604 4.65659 7.26732 4.66658C7.16903 4.67737 7.07437 4.70988 6.99019 4.76177C6.90602 4.81365 6.83444 4.88361 6.78065 4.96658L5.44732 6.96658C5.35083 7.11356 5.31631 7.2927 5.35127 7.46501C5.38623 7.63731 5.48784 7.78883 5.63398 7.88658C5.74134 7.96178 5.86958 8.00141 6.00065 7.99992Z" fill="#333333"/>
</svg>
