<svg width="18" height="18" viewBox="0 0 18 18" fill="none" xmlns="http://www.w3.org/2000/svg">
<g clip-path="url(#clip0_7900_500)">
<path d="M9 12C10.6569 12 12 10.6569 12 9C12 7.34315 10.6569 6 9 6C7.34315 6 6 7.34315 6 9C6 10.6569 7.34315 12 9 12Z" stroke="#333333" stroke-width="1.5" stroke-miterlimit="10" stroke-linecap="round" stroke-linejoin="round"/>
<path d="M16.1749 7.66667C15.9954 7.66513 15.8212 7.60569 15.6782 7.49721C15.5351 7.38873 15.4309 7.23698 15.3811 7.06453C15.2545 6.64737 15.087 6.24372 14.8811 5.85947C14.7939 5.70206 14.76 5.52072 14.7842 5.34245C14.8085 5.16418 14.8897 4.99852 15.0157 4.87013C15.1701 4.71519 15.2568 4.50539 15.2568 4.28667C15.2568 4.06795 15.1701 3.85814 15.0157 3.7032L14.2976 2.98373C14.1427 2.82936 13.9329 2.74268 13.7141 2.74268C13.4954 2.74268 13.2856 2.82936 13.1307 2.98373C13.0023 3.10978 12.8366 3.19098 12.6583 3.21524C12.4801 3.23951 12.2987 3.20554 12.1413 3.1184C11.7571 2.91247 11.3534 2.745 10.9363 2.6184C10.7638 2.56869 10.6119 2.46463 10.5033 2.3217C10.3946 2.17876 10.335 2.00459 10.3333 1.82507C10.3329 1.60638 10.2458 1.39676 10.0912 1.24212C9.93657 1.08749 9.72696 1.00042 9.50827 1H8.49173C8.27304 1.00042 8.06343 1.08749 7.90879 1.24212C7.75415 1.39676 7.66709 1.60638 7.66667 1.82507C7.66513 2.00458 7.60569 2.1788 7.49721 2.32182C7.38873 2.46485 7.23698 2.56905 7.06453 2.61893C6.64737 2.74553 6.24372 2.91301 5.85947 3.11893C5.70206 3.20608 5.52072 3.24004 5.34245 3.21578C5.16418 3.19151 4.99852 3.11031 4.87013 2.98427C4.71519 2.82989 4.50539 2.74321 4.28667 2.74321C4.06795 2.74321 3.85814 2.82989 3.7032 2.98427L2.98453 3.70427C2.83016 3.85921 2.74348 4.06901 2.74348 4.28773C2.74348 4.50645 2.83016 4.71626 2.98453 4.8712C3.11058 4.99958 3.19178 5.16525 3.21604 5.34352C3.24031 5.52179 3.20634 5.70313 3.1192 5.86053C2.91327 6.24479 2.7458 6.64843 2.6192 7.0656C2.56911 7.23789 2.46479 7.38943 2.32173 7.49772C2.17866 7.606 2.00448 7.66525 1.82507 7.66667C1.60638 7.66709 1.39676 7.75415 1.24212 7.90879C1.08749 8.06343 1.00042 8.27304 1 8.49173V9.508C1.00035 9.72674 1.08738 9.93642 1.24203 10.0911C1.39668 10.2458 1.60633 10.3329 1.82507 10.3333C2.00458 10.3349 2.1788 10.3943 2.32182 10.5028C2.46485 10.6113 2.56905 10.763 2.61893 10.9355C2.74553 11.3526 2.91301 11.7563 3.11893 12.1405C3.20608 12.2979 3.24004 12.4793 3.21578 12.6575C3.19151 12.8358 3.11031 13.0015 2.98427 13.1299C2.82989 13.2848 2.74321 13.4946 2.74321 13.7133C2.74321 13.9321 2.82989 14.1419 2.98427 14.2968L3.70427 15.0168C3.85921 15.1712 4.06901 15.2579 4.28773 15.2579C4.50645 15.2579 4.71626 15.1712 4.8712 15.0168C4.99958 14.8908 5.16525 14.8096 5.34352 14.7853C5.52179 14.761 5.70313 14.795 5.86053 14.8821C6.24479 15.0881 6.64843 15.2555 7.0656 15.3821C7.23767 15.4322 7.38906 15.5363 7.49732 15.6791C7.60558 15.8219 7.66496 15.9957 7.66667 16.1749C7.66709 16.3936 7.75415 16.6032 7.90879 16.7579C8.06343 16.9125 8.27304 16.9996 8.49173 17H9.508C9.72674 16.9996 9.93642 16.9126 10.0911 16.758C10.2458 16.6033 10.3329 16.3937 10.3333 16.1749C10.3349 15.9954 10.3943 15.8212 10.5028 15.6782C10.6113 15.5351 10.763 15.4309 10.9355 15.3811C11.3526 15.2545 11.7563 15.087 12.1405 14.8811C12.2979 14.7939 12.4793 14.76 12.6575 14.7842C12.8358 14.8085 13.0015 14.8897 13.1299 15.0157C13.2848 15.1701 13.4946 15.2568 13.7133 15.2568C13.9321 15.2568 14.1419 15.1701 14.2968 15.0157L15.0168 14.2971C15.1712 14.1421 15.2579 13.9323 15.2579 13.7136C15.2579 13.4949 15.1712 13.2851 15.0168 13.1301C14.8908 13.0017 14.8096 12.8361 14.7853 12.6578C14.761 12.4795 14.795 12.2982 14.8821 12.1408C15.0881 11.7565 15.2555 11.3529 15.3821 10.9357C15.4319 10.7634 15.5359 10.6117 15.6788 10.5032C15.8216 10.3947 15.9956 10.3351 16.1749 10.3333C16.3936 10.3329 16.6032 10.2458 16.7579 10.0912C16.9125 9.93657 16.9996 9.72696 17 9.50827V8.49173C16.9996 8.27304 16.9125 8.06343 16.7579 7.90879C16.6032 7.75415 16.3936 7.66709 16.1749 7.66667Z" stroke="#333333" stroke-width="1.5" stroke-miterlimit="10" stroke-linecap="round" stroke-linejoin="round"/>
</g>
<defs>
<clipPath id="clip0_7900_500">
<rect width="18" height="18" fill="white"/>
</clipPath>
</defs>
</svg>
