<svg width="17" height="18" viewBox="0 0 17 18" fill="none" xmlns="http://www.w3.org/2000/svg">
<g clip-path="url(#clip0_7900_451)">
<path fill-rule="evenodd" clip-rule="evenodd" d="M7.99922 3.4C7.99922 4.72548 6.9247 5.8 5.59922 5.8C4.27374 5.8 3.19922 4.72548 3.19922 3.4C3.19922 2.07452 4.27374 1 5.59922 1C6.23574 1 6.84619 1.25286 7.29628 1.70294C7.74636 2.15303 7.99922 2.76348 7.99922 3.4Z" stroke="#333333" stroke-width="1.2" stroke-linecap="round" stroke-linejoin="round"/>
<path d="M14.4 11.3984H9.6C8.71634 11.3984 8 12.1148 8 12.9984V15.3984C8 16.2821 8.71634 16.9984 9.6 16.9984H14.4C15.2837 16.9984 16 16.2821 16 15.3984V12.9984C16 12.1148 15.2837 11.3984 14.4 11.3984Z" stroke="#333333" stroke-width="1.2"/>
<path d="M10 13.397H12.4" stroke="#333333" stroke-width="0.8" stroke-linecap="round"/>
<path d="M10 14.9985H14" stroke="#333333" stroke-width="0.8" stroke-linecap="round"/>
<path d="M8.4 6.92188C10.1005 6.92188 11.5256 8.10086 11.9025 9.686C11.9833 10.0259 11.7007 10.3219 11.3514 10.3219C11.0345 10.3219 10.7786 10.0745 10.6799 9.77342C10.3656 8.81447 9.46411 8.12187 8.4 8.12187H3.6C2.27452 8.12187 1.2 9.19639 1.2 10.5219C1.2 11.8474 2.27452 12.9219 3.6 12.9219H6.4C6.73137 12.9219 7 13.1905 7 13.5219C7 13.8532 6.73137 14.1219 6.4 14.1219H3.6C1.61178 14.1219 0 12.5101 0 10.5219C0 8.53365 1.61178 6.92188 3.6 6.92188H8.4Z" fill="#333333"/>
</g>
<defs>
<clipPath id="clip0_7900_451">
<rect width="17" height="18" fill="white"/>
</clipPath>
</defs>
</svg>
