<svg width="22" height="22" viewBox="0 0 22 22" fill="none" xmlns="http://www.w3.org/2000/svg">
<path d="M4.39585 6.46829C4.39585 5.32337 5.32352 4.3957 6.46843 4.39479H7.41168C7.95893 4.39479 8.48327 4.17754 8.87193 3.79254L9.53102 3.13254C10.3386 2.32037 11.6513 2.3167 12.4634 3.12429L12.4644 3.1252L12.4726 3.13254L13.1326 3.79254C13.5213 4.17845 14.0456 4.39479 14.5929 4.39479H15.5352C16.6801 4.39479 17.6087 5.32245 17.6087 6.46829V7.4097C17.6087 7.95695 17.825 8.4822 18.2109 8.87087L18.8709 9.53087C19.6831 10.3385 19.6877 11.6511 18.8801 12.4633L18.8792 12.4642L18.8709 12.4725L18.2109 13.1325C17.825 13.5202 17.6087 14.0445 17.6087 14.5918V15.535C17.6087 16.68 16.681 17.6076 15.5361 17.6076H15.5352H14.591C14.0438 17.6076 13.5185 17.8249 13.1308 18.2108L12.4708 18.8699C11.6641 19.682 10.3524 19.6866 9.54018 18.8809C9.53927 18.88 9.53835 18.879 9.53743 18.8781L9.52918 18.8699L8.8701 18.2108C8.48235 17.8249 7.9571 17.6085 7.40985 17.6076H6.46843C5.32352 17.6076 4.39585 16.68 4.39585 15.535V14.59C4.39585 14.0427 4.1786 13.5184 3.79268 13.1306L3.1336 12.4706C2.32143 11.664 2.31685 10.3522 3.12352 9.54004C3.12352 9.53912 3.12443 9.5382 3.12535 9.53729L3.1336 9.52904L3.79268 8.86904C4.1786 8.48037 4.39585 7.95604 4.39585 7.40787V6.46829" stroke="#333333" stroke-width="1.5" stroke-linecap="round" stroke-linejoin="round"/>
<path d="M8.64648 13.3577L13.3582 8.646" stroke="#333333" stroke-width="1.5" stroke-linecap="round" stroke-linejoin="round"/>
<path d="M13.2882 13.2918H13.2964" stroke="#333333" stroke-width="2" stroke-linecap="round" stroke-linejoin="round"/>
<path d="M8.70421 8.70833H8.71246" stroke="#333333" stroke-width="2" stroke-linecap="round" stroke-linejoin="round"/>
</svg>
