<svg width="16" height="16" viewBox="0 0 16 16" fill="none" xmlns="http://www.w3.org/2000/svg">
<path d="M12.2372 10.3059C12.0026 10.0876 11.6368 10.1019 11.3903 10.3059L9.55347 11.8139C9.32799 11.9996 9.04736 12.1004 8.7583 12.0996H6.40717C6.32281 12.0996 6.24191 12.0652 6.18226 12.0039C6.12261 11.9427 6.0891 11.8597 6.0891 11.7731C6.0891 11.6865 6.12261 11.6034 6.18226 11.5422C6.24191 11.481 6.32281 11.4466 6.40717 11.4466H7.96352C8.2796 11.4466 8.57401 11.2242 8.62451 10.9038C8.63073 10.867 8.63379 10.8297 8.63365 10.7924C8.63334 10.6194 8.56618 10.4536 8.44691 10.3314C8.32765 10.2093 8.16602 10.1406 7.99751 10.1406H4.81683C4.28041 10.1408 3.76033 10.3302 3.34377 10.6771L2.41938 11.4466H1.31807C1.23371 11.4466 1.15281 11.481 1.09316 11.5422C1.03351 11.6034 1 11.6865 1 11.7731V13.732C1 13.8186 1.03351 13.9016 1.09316 13.9629C1.15281 14.0241 1.23371 14.0585 1.31807 14.0585H8.41041C8.69938 14.0587 8.97982 13.958 9.20558 13.7728L12.2119 11.3037C12.2842 11.2444 12.3431 11.1695 12.3843 11.0844C12.4255 10.9993 12.4481 10.9059 12.4505 10.8109C12.4529 10.7159 12.4351 10.6215 12.3983 10.5342C12.3615 10.447 12.3064 10.3691 12.2372 10.3059Z" fill="#333333"/>
<path d="M7.51411 9.08667C7.36497 9.05321 7.22492 9.0015 7.09396 8.93458C6.963 8.86766 6.84114 8.78249 6.72656 8.6821L7.08123 8.32165C7.20491 8.44788 7.34314 8.54218 7.4941 8.60454C7.64507 8.6669 7.81058 8.69883 7.98701 8.69883C8.23255 8.69883 8.41625 8.65929 8.5363 8.57868C8.65634 8.49807 8.71818 8.3764 8.71818 8.21366V8.21214C8.71818 8.10872 8.68908 8.02507 8.63088 7.96575C8.57267 7.90492 8.49628 7.85929 8.40352 7.82887C8.31076 7.79845 8.19072 7.77108 8.04521 7.74826C8.03975 7.74674 8.03612 7.74674 8.03066 7.74674C8.0252 7.74674 8.02157 7.74674 8.01611 7.74522C8.00702 7.7437 7.99792 7.74218 7.98883 7.74066C7.97973 7.73914 7.97064 7.73762 7.96155 7.7361C7.73055 7.69959 7.54321 7.66005 7.39953 7.61442C7.25584 7.56879 7.13398 7.48819 7.03212 7.37108C6.93027 7.25397 6.87934 7.08666 6.87934 6.86917V6.86765C6.87934 6.65625 6.92481 6.48134 7.01757 6.34142C7.11033 6.20149 7.24674 6.09655 7.42863 6.02659C7.61051 5.95662 7.83968 5.92164 8.11433 5.92164C8.23437 5.92164 8.35441 5.93229 8.47264 5.95358C8.59086 5.97488 8.70727 6.00682 8.82367 6.0494C8.94008 6.09199 9.05466 6.14522 9.16925 6.2091L8.85096 6.57564C8.72364 6.50415 8.59814 6.4494 8.47628 6.41442C8.35441 6.3764 8.23255 6.35815 8.11433 6.35815C7.88697 6.35815 7.716 6.39769 7.60142 6.47678C7.48683 6.55587 7.43044 6.67298 7.43044 6.83115V6.83267C7.43044 6.94066 7.46318 7.02583 7.52866 7.08666C7.59414 7.1475 7.67599 7.19313 7.77602 7.22203C7.87606 7.25092 8.01065 7.28134 8.18344 7.31328C8.19072 7.3148 8.19799 7.31632 8.20345 7.31784C8.21073 7.31936 8.218 7.32089 8.22709 7.32241C8.23619 7.32393 8.24346 7.32545 8.25256 7.32697C8.25983 7.32849 8.26893 7.33001 8.27802 7.33153C8.48173 7.36955 8.6527 7.41518 8.78911 7.46841C8.92735 7.52317 9.04011 7.60986 9.13287 7.73001C9.22382 7.85016 9.27111 8.0129 9.27111 8.21975V8.22431C9.27111 8.42811 9.22382 8.59693 9.12924 8.7323C9.03466 8.86766 8.89279 8.96804 8.70363 9.03496C8.51447 9.10188 8.27802 9.13534 7.99246 9.13534C7.82149 9.13686 7.66326 9.12013 7.51411 9.08667ZM7.77421 5.57031H8.30349V6.06461H7.77421V5.57031ZM7.77421 8.96652H8.30349V9.48819H7.77421V8.96652Z" fill="#333333"/>
<path d="M4.33108 11.3601C4.2439 11.4356 4.11324 11.4245 4.04336 11.332C3.47158 10.5748 3.11656 9.66728 3.02054 8.7115C2.91746 7.68533 3.11771 6.65107 3.59525 5.74335C4.07278 4.83564 4.80546 4.09651 5.69793 3.62217C6.5904 3.14784 7.60131 2.96028 8.59907 3.08391C9.59683 3.20753 10.5352 3.63662 11.2921 4.31531C12.049 4.994 12.5893 5.89085 12.8427 6.88914C13.0961 7.88742 13.0508 8.94087 12.7128 9.9124C12.398 10.8172 11.8428 11.612 11.1119 12.2078C11.0226 12.2806 10.8931 12.2595 10.8259 12.1649C10.7588 12.0702 10.7793 11.938 10.8684 11.8649C11.5324 11.3195 12.0369 10.5945 12.3239 9.76981C12.634 8.87846 12.6755 7.91194 12.443 6.99603C12.2105 6.08013 11.7148 5.25728 11.0204 4.63459C10.3259 4.01191 9.465 3.61823 8.54958 3.50481C7.63415 3.39139 6.70666 3.56347 5.88784 3.99866C5.06902 4.43385 4.39679 5.11199 3.95867 5.9448C3.52054 6.77761 3.33681 7.72653 3.43139 8.66802C3.51889 9.53909 3.84089 10.3665 4.35939 11.0584C4.42893 11.1512 4.41827 11.2846 4.33108 11.3601Z" fill="#333333"/>
</svg>
