<svg width="16" height="16" viewBox="0 0 16 16" fill="none" xmlns="http://www.w3.org/2000/svg">
<g clip-path="url(#clip0_7900_413)">
<path d="M0.359375 0.0531244C0.221875 0.125 0.128125 0.21875 0.059375 0.349999C0 0.4625 0 0.65625 0 8C0 15.3438 0 15.5375 0.059375 15.65C0.128125 15.7844 0.225 15.8781 0.365625 15.95C0.45625 15.9969 1.12188 16 8 16C15.3438 16 15.5375 16 15.65 15.9406C15.7844 15.8719 15.8781 15.775 15.95 15.6344C15.9969 15.5437 16 14.8781 16 8C16 1.12187 15.9969 0.45625 15.95 0.365624C15.8781 0.224999 15.7844 0.128125 15.65 0.0593748C15.5375 0 15.3438 0 7.99375 0C1.18125 0.00312519 0.44375 0.00624943 0.359375 0.0531244ZM15.3438 1.59375V2.53125H8H0.65625V1.59375V0.65625H8H15.3438V1.59375ZM15.3438 9.28125V15.3438H8H0.65625V9.28125V3.21875H8H15.3438V9.28125Z" fill="#333333"/>
<path d="M1.74936 4.197C1.59624 4.27512 1.59311 4.31262 1.59936 5.472C1.60874 6.68762 1.60249 6.65325 1.83999 6.71887C1.99624 6.76262 14.0025 6.76262 14.1587 6.71887C14.2212 6.70012 14.2994 6.65637 14.3306 6.622C14.3869 6.5595 14.39 6.49387 14.39 5.4345V4.31575L14.3181 4.24387L14.2462 4.172L8.03686 4.16575C3.09624 4.1595 1.81186 4.16575 1.74936 4.197ZM13.7494 5.43762V6.06262H7.99936H2.24936V5.43762V4.81262H7.99936H13.7494V5.43762Z" fill="#333333"/>
<path d="M2.05312 7.69702C1.8875 7.75014 1.72187 7.89389 1.65312 8.04389C1.59688 8.16577 1.59375 8.30952 1.59375 11.197C1.59375 13.8564 1.6 14.2345 1.64062 14.3376C1.70312 14.4845 1.79688 14.5814 1.95312 14.6657L2.07812 14.7345H4.64062H7.20312L7.34375 14.6564C7.41875 14.6126 7.525 14.5157 7.57812 14.4439L7.67188 14.3064L7.68125 11.2564C7.69063 7.83764 7.70312 8.03452 7.46563 7.83139C7.39687 7.77202 7.27813 7.70952 7.20312 7.69077C7.00313 7.64077 2.21562 7.64702 2.05312 7.69702ZM7.03125 11.2032V14.0626H4.64062H2.25V11.2032V8.34389H4.64062H7.03125V11.2032Z" fill="#333333"/>
<path d="M8.77465 7.69359C8.71215 7.70922 8.6059 7.77172 8.53715 7.83109C8.29653 8.03422 8.30903 7.83422 8.3184 11.2561L8.32778 14.3061L8.42153 14.4436C8.47465 14.5154 8.5809 14.6123 8.6559 14.6561L8.79653 14.7342H11.359H13.9215L14.0465 14.6654C14.2027 14.5811 14.2965 14.4842 14.359 14.3373C14.3996 14.2342 14.4059 13.8561 14.4059 11.1967C14.4059 8.32172 14.4027 8.16547 14.3465 8.04359C14.2746 7.88422 14.0934 7.73422 13.9184 7.69047C13.7434 7.64672 8.9434 7.64984 8.77465 7.69359ZM13.7496 11.2029V14.0623H11.359H8.9684V11.2029V8.34359H11.359H13.7496V11.2029Z" fill="#333333"/>
</g>
<defs>
<clipPath id="clip0_7900_413">
<rect width="16" height="16" fill="white"/>
</clipPath>
</defs>
</svg>
