<svg width="16" height="16" viewBox="0 0 16 16" fill="none" xmlns="http://www.w3.org/2000/svg">
<mask id="mask0_7900_386" style="mask-type:luminance" maskUnits="userSpaceOnUse" x="2" y="1" width="14" height="14">
<path d="M15.3605 1.27979H2.56055V14.7198H15.3605V1.27979Z" fill="white"/>
</mask>
<g mask="url(#mask0_7900_386)">
<path d="M12.8005 11.3068C12.8005 10.8541 12.5813 10.42 12.1913 10.0999C11.8012 9.77994 11.2721 9.6001 10.7205 9.6001H6.56048C6.00881 9.6001 5.47976 9.77994 5.08968 10.0999C4.69961 10.42 4.48047 10.8541 4.48047 11.3068" stroke="#333333" stroke-width="1.28" stroke-linecap="round" stroke-linejoin="round"/>
<path d="M8.53372 7.78671C9.71196 7.78671 10.667 6.83156 10.667 5.65335C10.667 4.47514 9.71196 3.52002 8.53372 3.52002C7.35554 3.52002 6.40039 4.47514 6.40039 5.65335C6.40039 6.83156 7.35554 7.78671 8.53372 7.78671Z" stroke="#333333" stroke-width="1.28" stroke-linecap="round" stroke-linejoin="round"/>
<path d="M11.5204 14.0801H6.40039V15.3601H11.5204V14.0801Z" fill="#333333" stroke="#333333" stroke-width="0.64"/>
</g>
<path d="M5.21403 7.32442C5.41475 7.56958 5.51333 7.88158 5.4881 8.19179C5.46286 8.502 5.31588 8.785 5.07948 8.9786L3.56586 7.12982C3.80226 6.93627 4.10872 6.84804 4.41781 6.88454C4.7269 6.92103 5.01332 7.07926 5.21403 7.32442ZM4.23159 9.225L2.24983 10.5233L2.06062 10.2922L1.83778 10.4746C1.71958 10.5714 1.64609 10.7129 1.63347 10.868C1.62085 11.0231 1.67015 11.1791 1.77051 11.3017C1.87086 11.4243 2.01407 11.5034 2.16862 11.5216C2.32316 11.5399 2.47639 11.4958 2.59459 11.399L2.973 11.8612C2.73659 12.0548 2.43013 12.143 2.12105 12.1065C1.81195 12.07 1.52555 11.9117 1.32482 11.6666C1.12411 11.4214 1.02552 11.1094 1.05076 10.7992C1.07599 10.489 1.22297 10.206 1.45938 10.0125L1.68222 9.83L1.49302 9.59889L3.15693 7.91236C3.17564 7.70795 3.24569 7.51162 3.36761 7.34231L4.83204 9.13099C4.64199 9.21707 4.43572 9.24702 4.23159 9.225ZM3.43131 8.78398C3.38113 8.72267 3.30953 8.68312 3.23225 8.67403C3.15498 8.66488 3.07837 8.68696 3.01926 8.73534C2.96016 8.78372 2.92341 8.85444 2.91711 8.93201C2.9108 9.00958 2.93545 9.0876 2.98562 9.14884C3.03581 9.21016 3.10741 9.24971 3.18468 9.25886C3.26196 9.26795 3.33856 9.24593 3.39767 9.19755C3.45677 9.1491 3.49351 9.07838 3.49982 9.00081C3.50613 8.92324 3.48149 8.84529 3.43131 8.78398Z" fill="#333333" stroke="#333333" stroke-width="0.64"/>
<path d="M5.76055 13.44V14.08H4.16055L2.56055 11.52H15.3606L13.7606 14.08H12.1606V13.44H5.76055Z" fill="#333333" stroke="#333333" stroke-width="0.64"/>
</svg>
