<svg width="16" height="16" viewBox="0 0 16 16" fill="none" xmlns="http://www.w3.org/2000/svg">
<path d="M1.33203 14.6665H14.6654" stroke="#333333" stroke-width="1.5" stroke-miterlimit="10" stroke-linecap="round" stroke-linejoin="round"/>
<path d="M10.0067 14.6599L2.00667 14.6732L2 4.71324C2 4.26657 2.22668 3.85322 2.59334 3.60655L5.26001 1.82656C5.70668 1.52656 6.29332 1.52656 6.73999 1.82656L9.40666 3.60655C9.77999 3.85322 10 4.26657 10 4.71324L10.0067 14.6599Z" stroke="#333333" stroke-width="1.5" stroke-miterlimit="10" stroke-linecap="round" stroke-linejoin="round"/>
<path d="M13.3203 14.6733V12" stroke="#333333" stroke-width="1.5" stroke-miterlimit="10" stroke-linecap="round" stroke-linejoin="round"/>
<path d="M13.3333 8C12.6 8 12 8.6 12 9.33333V10.6667C12 11.4 12.6 12 13.3333 12C14.0667 12 14.6667 11.4 14.6667 10.6667V9.33333C14.6667 8.6 14.0667 8 13.3333 8Z" stroke="#333333" stroke-width="1.5" stroke-miterlimit="10" stroke-linecap="round" stroke-linejoin="round"/>
<path d="M2 9.3335H10" stroke="#333333" stroke-width="1.5" stroke-miterlimit="10" stroke-linecap="round" stroke-linejoin="round"/>
<path d="M6 14.6665V12.1665" stroke="#333333" stroke-width="1.5" stroke-miterlimit="10" stroke-linecap="round" stroke-linejoin="round"/>
<path d="M6 7C6.55228 7 7 6.55228 7 6C7 5.44772 6.55228 5 6 5C5.44772 5 5 5.44772 5 6C5 6.55228 5.44772 7 6 7Z" stroke="#333333" stroke-width="1.5" stroke-miterlimit="10" stroke-linecap="round" stroke-linejoin="round"/>
</svg>
