<svg width="16" height="16" viewBox="0 0 16 16" fill="none" xmlns="http://www.w3.org/2000/svg">
<path d="M14.6654 8.66683V6.00016C14.6654 2.66683 13.332 1.3335 9.9987 1.3335H5.9987C2.66536 1.3335 1.33203 2.66683 1.33203 6.00016V10.0002C1.33203 13.3335 2.66536 14.6668 5.9987 14.6668H8.66536" stroke="#333333" stroke-width="1.5" stroke-linecap="round" stroke-linejoin="round"/>
<path d="M14.6369 14.8559L13.4648 13.4077" stroke="#333333" stroke-width="1.5" stroke-miterlimit="10" stroke-linecap="round" stroke-linejoin="round"/>
<path d="M11.0244 12.9848C11.5908 13.6846 12.6173 13.7928 13.3172 13.2264C14.017 12.66 14.1252 11.6335 13.5588 10.9337C12.9924 10.2338 11.9659 10.1257 11.266 10.6921C10.5662 11.2585 10.458 12.285 11.0244 12.9848Z" stroke="#333333" stroke-width="1.5" stroke-miterlimit="10" stroke-linecap="round" stroke-linejoin="round"/>
<path d="M4.88672 9.65985L6.47339 7.59984C6.70006 7.30651 7.12006 7.25318 7.41339 7.47985L8.6334 8.43985C8.92674 8.66652 9.34672 8.61318 9.57338 8.32652L11.1134 6.33984" stroke="#333333" stroke-width="1.5" stroke-linecap="round" stroke-linejoin="round"/>
</svg>
