<svg width="16" height="16" viewBox="0 0 16 16" fill="none" xmlns="http://www.w3.org/2000/svg">
<path d="M5.47089 11.9854V11.9918C5.47089 12.219 5.42971 12.4078 5.35028 12.5582C5.26791 12.7086 5.1473 12.8206 4.9855 12.8974C4.88842 12.9422 4.77369 12.9742 4.64425 12.9902V13.3998H4.19121V12.9966C4.11472 12.987 4.04118 12.971 3.96764 12.9518C3.8382 12.9134 3.72053 12.859 3.6058 12.7822C3.49401 12.7054 3.39104 12.6126 3.29102 12.5006L3.59697 12.1006C3.70288 12.2414 3.82055 12.347 3.94999 12.4174C4.07942 12.4878 4.22063 12.523 4.3736 12.523C4.58541 12.523 4.74133 12.4782 4.84429 12.3886C4.94725 12.299 5.0002 12.1646 5.0002 11.9822V11.9758C5.0002 11.8606 4.97667 11.7678 4.92372 11.7006C4.87371 11.6334 4.80899 11.5822 4.72956 11.547C4.65013 11.5118 4.54717 11.483 4.42361 11.4574C4.42067 11.4542 4.41479 11.4542 4.41185 11.4542C4.4089 11.4542 4.40302 11.4542 4.40008 11.451C4.3942 11.451 4.38537 11.4478 4.37655 11.4478C4.36772 11.4478 4.36184 11.4446 4.35301 11.4446C4.15591 11.403 3.99411 11.3582 3.87056 11.3102C3.747 11.2622 3.6411 11.1694 3.55579 11.0382C3.46753 10.907 3.4234 10.7214 3.4234 10.4782V10.475C3.4234 10.2414 3.46165 10.0462 3.54108 9.88934C3.6205 9.73574 3.73523 9.61734 3.89409 9.54054C3.9794 9.49574 4.07942 9.46374 4.19121 9.44774V9.03174H4.64425V9.43174C4.69426 9.43814 4.74133 9.44774 4.79134 9.45734C4.89136 9.47974 4.99138 9.51494 5.0914 9.56294C5.19142 9.61094 5.2885 9.66854 5.38558 9.73894L5.11199 10.1486C5.00315 10.0686 4.8943 10.0078 4.79134 9.96614C4.68838 9.92774 4.58247 9.90854 4.48245 9.90854C4.28829 9.90854 4.1412 9.95334 4.04412 10.0398C3.94704 10.1262 3.89703 10.2574 3.89703 10.4334V10.4366C3.89703 10.5582 3.92351 10.651 3.97941 10.7182C4.0353 10.7854 4.1059 10.8366 4.19121 10.8686C4.27652 10.9006 4.39125 10.9358 4.54128 10.971C4.54717 10.971 4.55305 10.9742 4.55893 10.9742C4.56482 10.9742 4.57365 10.9774 4.57953 10.9774C4.58541 10.9806 4.59424 10.9806 4.60012 10.9838C4.606 10.9838 4.61483 10.987 4.62071 10.987C4.79428 11.0286 4.94137 11.0798 5.05904 11.1406C5.17672 11.2014 5.27379 11.3006 5.35322 11.4318C5.43265 11.5726 5.47089 11.755 5.47089 11.9854Z" fill="#333333"/>
<path d="M4.38399 7.64014C4.28691 7.64014 4.18983 7.64316 4.0957 7.65225V7.64014H4.38399Z" fill="#333333"/>
<path d="M14.5381 2.1264L14.5058 2.04L14.4705 1.9536L14.0969 1L13.7233 1.9536L13.688 2.04L13.6556 2.1264L13.1937 3.2976L13.2349 3.3424L13.6556 2.9072V7.64H12.7731V2.84H11.8905V7.64H11.008V3.8H10.1254V7.64H9.24291V5.08H8.36037V7.64H4.38306C4.28598 7.64 4.18891 7.6432 4.09477 7.6528C2.36205 7.8128 1 9.3968 1 11.32C1 13.3488 2.51797 15 4.38306 15C6.24816 15 7.76613 13.3488 7.76613 11.32C7.76613 10.2448 7.33956 9.2752 6.66001 8.6H14.5381V2.9072L14.9588 3.3424L15 3.2976L14.5381 2.1264ZM6.88359 11.32C6.88359 12.8208 5.75982 14.04 4.38306 14.04C3.00336 14.04 1.88254 12.8208 1.88254 11.32C1.88254 9.8192 3.00336 8.6 4.38306 8.6C5.75982 8.6 6.88359 9.8192 6.88359 11.32Z" fill="#333333"/>
</svg>
