<svg width="16" height="16" viewBox="0 0 16 16" fill="none" xmlns="http://www.w3.org/2000/svg">
<path d="M14.6654 8.66634V5.99967C14.6654 2.66634 13.332 1.33301 9.9987 1.33301H5.9987C2.66536 1.33301 1.33203 2.66634 1.33203 5.99967V9.99967C1.33203 13.333 2.66536 14.6663 5.9987 14.6663H8.66536" stroke="#333333" stroke-width="1.5" stroke-linecap="round" stroke-linejoin="round"/>
<path d="M14.6654 8.66634V5.99967C14.6654 2.66634 13.332 1.33301 9.9987 1.33301H5.9987C2.66536 1.33301 1.33203 2.66634 1.33203 5.99967V9.99967C1.33203 13.333 2.66536 14.6663 5.9987 14.6663H8.66536" stroke="#333333" stroke-width="1.5" stroke-linecap="round" stroke-linejoin="round"/>
<path d="M14.6654 8.66634V5.99967C14.6654 2.66634 13.332 1.33301 9.9987 1.33301H5.9987C2.66536 1.33301 1.33203 2.66634 1.33203 5.99967V9.99967C1.33203 13.333 2.66536 14.6663 5.9987 14.6663H8.66536" stroke="#333333" stroke-width="1.5" stroke-linecap="round" stroke-linejoin="round"/>
<path d="M10.668 12.953L11.7213 13.9997L14.0013 11.333" stroke="#333333" stroke-width="1.5" stroke-linecap="round" stroke-linejoin="round"/>
<path d="M4.66797 7V9" stroke="#333333" stroke-width="1.5" stroke-linecap="round" stroke-linejoin="round"/>
<path d="M8 7V9" stroke="#333333" stroke-width="1.5" stroke-linecap="round" stroke-linejoin="round"/>
<path d="M11.332 7V9" stroke="#333333" stroke-width="1.5" stroke-linecap="round" stroke-linejoin="round"/>
</svg>
